<?xml version="1.0" encoding="UTF-8" standalone="no"?>
<!-- Created with Inkscape (http://www.inkscape.org/) -->

<svg
   width="149mm"
   height="50mm"
   viewBox="0 0 149 50"
   version="1.1"
   id="svg20446"
   xml:space="preserve"
   inkscape:version="1.2 (dc2aedaf03, 2022-05-15)"
   sodipodi:docname="etaTs.svg"
   xmlns:inkscape="http://www.inkscape.org/namespaces/inkscape"
   xmlns:sodipodi="http://sodipodi.sourceforge.net/DTD/sodipodi-0.dtd"
   xmlns:xlink="http://www.w3.org/1999/xlink"
   xmlns="http://www.w3.org/2000/svg"
   xmlns:svg="http://www.w3.org/2000/svg"><sodipodi:namedview
     id="namedview20448"
     pagecolor="#ffffff"
     bordercolor="#000000"
     borderopacity="0.25"
     inkscape:showpageshadow="2"
     inkscape:pageopacity="0.0"
     inkscape:pagecheckerboard="0"
     inkscape:deskcolor="#d1d1d1"
     inkscape:document-units="mm"
     showgrid="false"
     inkscape:zoom="1.4788159"
     inkscape:cx="269.47235"
     inkscape:cy="136.93388"
     inkscape:window-width="1920"
     inkscape:window-height="991"
     inkscape:window-x="-9"
     inkscape:window-y="-9"
     inkscape:window-maximized="1"
     inkscape:current-layer="layer1" /><defs
     id="defs20443"><style
       type="text/css"
       id="style20569">*{stroke-linejoin: round; stroke-linecap: butt}</style><path
       id="m61b22a424a"
       d="M 0 0  L 0 3.5  "
       style="stroke: #000000; stroke-width: 0.8" /><path
       id="CMR17-30"
       d="M 2688 2038  C 2688 2430 2682 3099 2413 3613  C 2176 4063 1798 4224 1466 4224  C 1158 4224 768 4082 525 3620  C 269 3137 243 2539 243 2038  C 243 1671 250 1112 448 623  C 723 -39 1216 -128 1466 -128  C 1760 -128 2208 -7 2470 604  C 2662 1048 2688 1568 2688 2038  z M 1466 -26  C 1056 -26 813 328 723 816  C 653 1196 653 1749 653 2109  C 653 2604 653 3015 736 3407  C 858 3954 1216 4121 1466 4121  C 1728 4121 2067 3947 2189 3420  C 2272 3054 2278 2623 2278 2109  C 2278 1691 2278 1176 2202 797  C 2067 96 1690 -26 1466 -26  z "
       transform="scale(0.015625)" /><path
       id="CMMI12-3a"
       d="M 1178 307  C 1178 492 1024 620 870 620  C 685 620 557 467 557 313  C 557 128 710 0 864 0  C 1050 0 1178 153 1178 307  z "
       transform="scale(0.015625)" /><path
       id="CMR17-37"
       d="M 2886 3955  L 2886 4096  L 1382 4096  C 634 4096 621 4166 595 4288  L 480 4288  L 294 3104  L 410 3104  C 429 3226 474 3552 550 3673  C 589 3724 1062 3724 1171 3724  L 2579 3724  L 1869 2670  C 1395 1961 1069 1003 1069 166  C 1069 89 1069 -128 1299 -128  C 1530 -128 1530 89 1530 172  L 1530 466  C 1530 1514 1709 2204 2003 2644  L 2886 3955  z "
       transform="scale(0.015625)" /><path
       id="CMR17-35"
       d="M 730 3750  C 794 3724 1056 3641 1325 3641  C 1920 3641 2246 3961 2432 4140  C 2432 4191 2432 4224 2394 4224  C 2387 4224 2374 4224 2323 4198  C 2099 4102 1837 4032 1517 4032  C 1325 4032 1037 4055 723 4191  C 653 4224 640 4224 634 4224  C 602 4224 595 4217 595 4090  L 595 2231  C 595 2113 595 2080 659 2080  C 691 2080 704 2093 736 2139  C 941 2435 1222 2560 1542 2560  C 1766 2560 2246 2415 2246 1293  C 2246 1087 2246 716 2054 422  C 1894 159 1645 25 1370 25  C 947 25 518 319 403 812  C 429 806 480 793 506 793  C 589 793 749 838 749 1036  C 749 1209 627 1280 506 1280  C 358 1280 262 1190 262 1011  C 262 454 704 -128 1382 -128  C 2042 -128 2669 441 2669 1267  C 2669 2054 2170 2662 1549 2662  C 1222 2662 947 2540 730 2304  L 730 3750  z "
       transform="scale(0.015625)" /><path
       id="CMR17-31"
       d="M 1702 4083  C 1702 4217 1696 4224 1606 4224  C 1357 3927 979 3833 621 3820  C 602 3820 570 3820 563 3808  C 557 3795 557 3782 557 3648  C 755 3648 1088 3686 1344 3839  L 1344 467  C 1344 243 1331 166 781 166  L 589 166  L 589 0  C 896 6 1216 12 1523 12  C 1830 12 2150 6 2458 0  L 2458 166  L 2266 166  C 1715 166 1702 236 1702 467  L 1702 4083  z "
       transform="scale(0.015625)" /><path
       id="CMR17-32"
       d="M 2669 990  L 2554 990  C 2490 537 2438 460 2413 422  C 2381 371 1920 371 1830 371  L 602 371  C 832 620 1280 1073 1824 1596  C 2214 1966 2669 2400 2669 3033  C 2669 3788 2067 4224 1395 4224  C 691 4224 262 3603 262 3027  C 262 2777 448 2745 525 2745  C 589 2745 781 2783 781 3007  C 781 3206 614 3264 525 3264  C 486 3264 448 3257 422 3244  C 544 3788 915 4057 1306 4057  C 1862 4057 2227 3616 2227 3033  C 2227 2477 1901 1998 1536 1583  L 262 147  L 262 0  L 2515 0  L 2669 990  z "
       transform="scale(0.015625)" /><path
       id="CMMI12-78"
       d="M 3034 2624  C 2829 2585 2752 2431 2752 2310  C 2752 2156 2874 2105 2963 2105  C 3155 2105 3290 2271 3290 2444  C 3290 2694 2982 2816 2714 2816  C 2323 2816 2106 2451 2048 2329  C 1901 2790 1504 2816 1389 2816  C 736 2816 390 1993 390 1849  C 390 1823 416 1790 461 1790  C 512 1790 525 1829 538 1855  C 755 2572 1184 2687 1370 2687  C 1658 2687 1715 2438 1715 2284  C 1715 2143 1677 1993 1600 1678  L 1382 778  C 1286 390 1101 64 762 64  C 730 64 570 64 435 126  C 666 166 717 358 717 435  C 717 563 621 640 499 640  C 346 640 179 505 179 300  C 179 57 480 -64 755 -64  C 1062 -64 1280 153 1414 415  C 1517 64 1837 -64 2074 -64  C 2726 -64 3072 751 3072 896  C 3072 929 3046 955 3008 955  C 2950 955 2944 922 2925 870  C 2752 300 2381 64 2093 64  C 1869 64 1747 204 1747 467  C 1747 607 1773 712 1875 1146  L 2099 2039  C 2195 2425 2413 2687 2707 2687  C 2720 2687 2899 2687 3034 2624  z "
       transform="scale(0.015625)" /><path
       id="CMR17-28"
       d="M 1958 -1562  C 1958 -1556 1958 -1543 1939 -1524  C 1645 -1223 858 -403 858 1596  C 858 3595 1632 4408 1946 4729  C 1946 4735 1958 4748 1958 4767  C 1958 4787 1939 4800 1914 4800  C 1843 4800 1299 4325 986 3620  C 666 2909 576 2218 576 1603  C 576 1141 621 360 1005 -467  C 1312 -1133 1837 -1600 1914 -1600  C 1946 -1600 1958 -1588 1958 -1562  z "
       transform="scale(0.015625)" /><path
       id="CMMI12-16"
       d="M 922 140  C 1082 -7 1318 -64 1536 -64  C 1946 -64 2227 210 2374 408  C 2438 70 2707 -64 2931 -64  C 3123 -64 3277 51 3392 281  C 3494 498 3584 887 3584 913  C 3584 944 3558 970 3520 970  C 3462 970 3456 938 3430 842  C 3334 466 3213 64 2950 64  C 2765 64 2752 229 2752 357  C 2752 504 2810 734 2854 925  L 3034 1615  C 3059 1736 3130 2023 3162 2138  C 3200 2291 3270 2566 3270 2591  C 3270 2687 3194 2752 3098 2752  C 3040 2752 2906 2726 2854 2534  L 2406 759  C 2374 632 2374 619 2291 517  C 2214 408 1965 64 1562 64  C 1203 64 1088 325 1088 625  C 1088 811 1146 1034 1171 1143  L 1459 2292  C 1491 2413 1542 2617 1542 2656  C 1542 2758 1459 2816 1376 2816  C 1318 2816 1178 2796 1126 2592  L 198 -1085  C 192 -1116 179 -1154 179 -1191  C 179 -1287 256 -1351 352 -1351  C 538 -1351 576 -1204 621 -1029  L 922 140  z "
       transform="scale(0.015625)" /><path
       id="CMR17-6d"
       d="M 4326 1954  C 4326 2276 4269 2816 3507 2816  C 3072 2816 2771 2520 2656 2173  L 2650 2173  C 2573 2700 2195 2816 1837 2816  C 1331 2816 1069 2424 973 2166  L 966 2166  L 966 2816  L 211 2745  L 211 2578  C 589 2578 646 2540 646 2231  L 646 443  C 646 198 621 166 211 166  L 211 0  C 365 12 646 12 813 12  C 979 12 1267 12 1421 0  L 1421 166  C 1011 166 986 192 986 443  L 986 1678  C 986 2269 1344 2713 1792 2713  C 2266 2713 2317 2289 2317 1980  L 2317 443  C 2317 198 2291 166 1882 166  L 1882 0  C 2035 12 2317 12 2483 12  C 2650 12 2938 12 3091 0  L 3091 166  C 2682 166 2656 192 2656 443  L 2656 1678  C 2656 2269 3014 2713 3462 2713  C 3936 2713 3987 2289 3987 1980  L 3987 443  C 3987 198 3962 166 3552 166  L 3552 0  C 3706 12 3987 12 4154 12  C 4320 12 4608 12 4762 0  L 4762 166  C 4352 166 4326 192 4326 443  L 4326 1954  z "
       transform="scale(0.015625)" /><path
       id="CMR17-29"
       d="M 1683 1596  C 1683 2057 1638 2839 1254 3665  C 947 4332 422 4800 346 4800  C 326 4800 301 4793 301 4761  C 301 4748 307 4742 314 4729  C 621 4408 1402 3595 1402 1603  C 1402 -396 627 -1210 314 -1530  C 307 -1543 301 -1549 301 -1562  C 301 -1594 326 -1600 346 -1600  C 416 -1600 960 -1127 1274 -422  C 1594 289 1683 981 1683 1596  z "
       transform="scale(0.015625)" /><path
       id="m790f2c41ec"
       d="M 0 0  L -3.5 0  "
       style="stroke: #000000; stroke-width: 0.8" /><path
       id="CMMI12-47"
       d="M 4774 4422  C 4774 4480 4730 4480 4717 4480  C 4704 4480 4678 4480 4627 4415  L 4186 3887  C 4154 3938 4026 4161 3776 4307  C 3501 4480 3226 4480 3130 4480  C 1760 4480 320 3093 320 1593  C 320 546 1050 -128 2010 -128  C 2470 -128 3053 25 3373 425  C 3443 184 3584 12 3629 12  C 3661 12 3667 32 3674 32  C 3680 44 3731 266 3763 381  L 3866 787  C 3917 996 3942 1085 3987 1275  C 4051 1516 4064 1535 4416 1542  C 4442 1542 4518 1542 4518 1663  C 4518 1728 4454 1728 4435 1728  C 4326 1728 4205 1715 4090 1715  L 3744 1715  C 3475 1715 3194 1728 2931 1728  C 2874 1728 2797 1728 2797 1612  C 2797 1548 2848 1548 2848 1542  L 3008 1542  C 3514 1542 3514 1491 3514 1396  C 3514 1390 3392 749 3270 558  C 3027 203 2522 57 2144 57  C 1651 57 851 311 851 1409  C 851 1835 1005 2807 1626 3525  C 2029 3983 2624 4294 3187 4294  C 3942 4294 4211 3652 4211 3068  C 4211 2966 4186 2826 4186 2738  C 4186 2680 4250 2680 4269 2680  C 4339 2680 4346 2687 4371 2801  L 4774 4422  z "
       transform="scale(0.015625)" /><path
       id="CMR17-47"
       d="M 3974 1258  C 3974 1503 3994 1536 4390 1536  L 4390 1702  C 4237 1689 3891 1689 3718 1689  C 3539 1689 3040 1696 2797 1702  L 2797 1536  L 2989 1536  C 3539 1536 3552 1464 3552 1232  L 3552 806  C 3552 96 2720 38 2522 38  C 1862 38 781 496 781 2179  C 781 3862 1843 4313 2464 4313  C 3187 4313 3712 3681 3834 2785  C 3846 2708 3846 2695 3904 2695  C 3974 2695 3974 2708 3974 2824  L 3974 4351  C 3974 4467 3968 4473 3930 4473  C 3904 4473 3898 4467 3853 4390  L 3571 3849  C 3258 4249 2874 4480 2381 4480  C 1286 4480 294 3507 294 2179  C 294 858 1267 -128 2394 -128  C 2912 -128 3418 57 3616 425  C 3725 161 3904 -20 3936 -20  C 3968 -20 3974 -13 3974 102  L 3974 1258  z "
       transform="scale(0.015625)" /><path
       id="CMR17-48"
       d="M 3590 3898  C 3590 4185 3661 4185 4102 4185  L 4102 4352  C 3917 4339 3578 4339 3379 4339  C 3181 4339 2842 4339 2656 4352  L 2656 4185  C 3098 4185 3168 4185 3168 3898  L 3168 2342  L 1261 2342  L 1261 3898  C 1261 4185 1331 4185 1773 4185  L 1773 4352  C 1587 4339 1248 4339 1050 4339  C 851 4339 512 4339 326 4352  L 326 4185  C 768 4185 838 4185 838 3898  L 838 452  C 838 166 768 166 326 166  L 326 0  C 512 12 851 12 1050 12  C 1248 12 1587 12 1773 0  L 1773 166  C 1331 166 1261 166 1261 452  L 1261 2176  L 3168 2176  L 3168 452  C 3168 166 3098 166 2656 166  L 2656 0  C 2842 12 3181 12 3379 12  C 3578 12 3917 12 4102 0  L 4102 166  C 3661 166 3590 166 3590 452  L 3590 3898  z "
       transform="scale(0.015625)" /><path
       id="CMR17-7a"
       d="M 2310 2604  C 2362 2668 2362 2681 2362 2694  C 2362 2752 2336 2752 2221 2752  L 275 2752  L 211 1760  L 326 1760  C 371 2380 442 2649 1178 2649  L 1958 2649  L 128 96  C 128 6 134 0 269 0  L 2291 0  L 2381 1152  L 2266 1152  C 2214 441 2131 115 1350 115  L 531 115  L 2310 2604  z "
       transform="scale(0.015625)" /><path
       id="CMR17-2f"
       d="M 2605 4575  C 2637 4658 2637 4671 2637 4684  C 2637 4761 2579 4800 2528 4800  C 2451 4800 2426 4748 2400 4671  L 326 -1376  C 294 -1460 294 -1472 294 -1485  C 294 -1562 352 -1600 403 -1600  C 480 -1600 506 -1549 531 -1472  L 2605 4575  z "
       transform="scale(0.015625)" /><clipPath
       id="p0cf1c50656"><rect
         x="48.763169"
         y="9.72"
         width="363.879036"
         height="92.363267"
         id="rect20847" /></clipPath><style
       type="text/css"
       id="style21066">*{stroke-linejoin: round; stroke-linecap: butt}</style><path
       id="ma6d76110ff"
       d="M 0 0  L 0 3.5  "
       style="stroke: #000000; stroke-width: 0.8" /><path
       id="CMR17-30-1"
       d="M 2688 2038  C 2688 2430 2682 3099 2413 3613  C 2176 4063 1798 4224 1466 4224  C 1158 4224 768 4082 525 3620  C 269 3137 243 2539 243 2038  C 243 1671 250 1112 448 623  C 723 -39 1216 -128 1466 -128  C 1760 -128 2208 -7 2470 604  C 2662 1048 2688 1568 2688 2038  z M 1466 -26  C 1056 -26 813 328 723 816  C 653 1196 653 1749 653 2109  C 653 2604 653 3015 736 3407  C 858 3954 1216 4121 1466 4121  C 1728 4121 2067 3947 2189 3420  C 2272 3054 2278 2623 2278 2109  C 2278 1691 2278 1176 2202 797  C 2067 96 1690 -26 1466 -26  z "
       transform="scale(0.015625)" /><path
       id="CMMI12-3a-9"
       d="M 1178 307  C 1178 492 1024 620 870 620  C 685 620 557 467 557 313  C 557 128 710 0 864 0  C 1050 0 1178 153 1178 307  z "
       transform="scale(0.015625)" /><path
       id="CMR17-37-4"
       d="M 2886 3955  L 2886 4096  L 1382 4096  C 634 4096 621 4166 595 4288  L 480 4288  L 294 3104  L 410 3104  C 429 3226 474 3552 550 3673  C 589 3724 1062 3724 1171 3724  L 2579 3724  L 1869 2670  C 1395 1961 1069 1003 1069 166  C 1069 89 1069 -128 1299 -128  C 1530 -128 1530 89 1530 172  L 1530 466  C 1530 1514 1709 2204 2003 2644  L 2886 3955  z "
       transform="scale(0.015625)" /><path
       id="CMR17-35-3"
       d="M 730 3750  C 794 3724 1056 3641 1325 3641  C 1920 3641 2246 3961 2432 4140  C 2432 4191 2432 4224 2394 4224  C 2387 4224 2374 4224 2323 4198  C 2099 4102 1837 4032 1517 4032  C 1325 4032 1037 4055 723 4191  C 653 4224 640 4224 634 4224  C 602 4224 595 4217 595 4090  L 595 2231  C 595 2113 595 2080 659 2080  C 691 2080 704 2093 736 2139  C 941 2435 1222 2560 1542 2560  C 1766 2560 2246 2415 2246 1293  C 2246 1087 2246 716 2054 422  C 1894 159 1645 25 1370 25  C 947 25 518 319 403 812  C 429 806 480 793 506 793  C 589 793 749 838 749 1036  C 749 1209 627 1280 506 1280  C 358 1280 262 1190 262 1011  C 262 454 704 -128 1382 -128  C 2042 -128 2669 441 2669 1267  C 2669 2054 2170 2662 1549 2662  C 1222 2662 947 2540 730 2304  L 730 3750  z "
       transform="scale(0.015625)" /><path
       id="CMR17-31-0"
       d="M 1702 4083  C 1702 4217 1696 4224 1606 4224  C 1357 3927 979 3833 621 3820  C 602 3820 570 3820 563 3808  C 557 3795 557 3782 557 3648  C 755 3648 1088 3686 1344 3839  L 1344 467  C 1344 243 1331 166 781 166  L 589 166  L 589 0  C 896 6 1216 12 1523 12  C 1830 12 2150 6 2458 0  L 2458 166  L 2266 166  C 1715 166 1702 236 1702 467  L 1702 4083  z "
       transform="scale(0.015625)" /><path
       id="CMR17-32-5"
       d="M 2669 990  L 2554 990  C 2490 537 2438 460 2413 422  C 2381 371 1920 371 1830 371  L 602 371  C 832 620 1280 1073 1824 1596  C 2214 1966 2669 2400 2669 3033  C 2669 3788 2067 4224 1395 4224  C 691 4224 262 3603 262 3027  C 262 2777 448 2745 525 2745  C 589 2745 781 2783 781 3007  C 781 3206 614 3264 525 3264  C 486 3264 448 3257 422 3244  C 544 3788 915 4057 1306 4057  C 1862 4057 2227 3616 2227 3033  C 2227 2477 1901 1998 1536 1583  L 262 147  L 262 0  L 2515 0  L 2669 990  z "
       transform="scale(0.015625)" /><path
       id="CMMI12-78-0"
       d="M 3034 2624  C 2829 2585 2752 2431 2752 2310  C 2752 2156 2874 2105 2963 2105  C 3155 2105 3290 2271 3290 2444  C 3290 2694 2982 2816 2714 2816  C 2323 2816 2106 2451 2048 2329  C 1901 2790 1504 2816 1389 2816  C 736 2816 390 1993 390 1849  C 390 1823 416 1790 461 1790  C 512 1790 525 1829 538 1855  C 755 2572 1184 2687 1370 2687  C 1658 2687 1715 2438 1715 2284  C 1715 2143 1677 1993 1600 1678  L 1382 778  C 1286 390 1101 64 762 64  C 730 64 570 64 435 126  C 666 166 717 358 717 435  C 717 563 621 640 499 640  C 346 640 179 505 179 300  C 179 57 480 -64 755 -64  C 1062 -64 1280 153 1414 415  C 1517 64 1837 -64 2074 -64  C 2726 -64 3072 751 3072 896  C 3072 929 3046 955 3008 955  C 2950 955 2944 922 2925 870  C 2752 300 2381 64 2093 64  C 1869 64 1747 204 1747 467  C 1747 607 1773 712 1875 1146  L 2099 2039  C 2195 2425 2413 2687 2707 2687  C 2720 2687 2899 2687 3034 2624  z "
       transform="scale(0.015625)" /><path
       id="CMR17-28-7"
       d="M 1958 -1562  C 1958 -1556 1958 -1543 1939 -1524  C 1645 -1223 858 -403 858 1596  C 858 3595 1632 4408 1946 4729  C 1946 4735 1958 4748 1958 4767  C 1958 4787 1939 4800 1914 4800  C 1843 4800 1299 4325 986 3620  C 666 2909 576 2218 576 1603  C 576 1141 621 360 1005 -467  C 1312 -1133 1837 -1600 1914 -1600  C 1946 -1600 1958 -1588 1958 -1562  z "
       transform="scale(0.015625)" /><path
       id="CMMI12-16-4"
       d="M 922 140  C 1082 -7 1318 -64 1536 -64  C 1946 -64 2227 210 2374 408  C 2438 70 2707 -64 2931 -64  C 3123 -64 3277 51 3392 281  C 3494 498 3584 887 3584 913  C 3584 944 3558 970 3520 970  C 3462 970 3456 938 3430 842  C 3334 466 3213 64 2950 64  C 2765 64 2752 229 2752 357  C 2752 504 2810 734 2854 925  L 3034 1615  C 3059 1736 3130 2023 3162 2138  C 3200 2291 3270 2566 3270 2591  C 3270 2687 3194 2752 3098 2752  C 3040 2752 2906 2726 2854 2534  L 2406 759  C 2374 632 2374 619 2291 517  C 2214 408 1965 64 1562 64  C 1203 64 1088 325 1088 625  C 1088 811 1146 1034 1171 1143  L 1459 2292  C 1491 2413 1542 2617 1542 2656  C 1542 2758 1459 2816 1376 2816  C 1318 2816 1178 2796 1126 2592  L 198 -1085  C 192 -1116 179 -1154 179 -1191  C 179 -1287 256 -1351 352 -1351  C 538 -1351 576 -1204 621 -1029  L 922 140  z "
       transform="scale(0.015625)" /><path
       id="CMR17-6d-7"
       d="M 4326 1954  C 4326 2276 4269 2816 3507 2816  C 3072 2816 2771 2520 2656 2173  L 2650 2173  C 2573 2700 2195 2816 1837 2816  C 1331 2816 1069 2424 973 2166  L 966 2166  L 966 2816  L 211 2745  L 211 2578  C 589 2578 646 2540 646 2231  L 646 443  C 646 198 621 166 211 166  L 211 0  C 365 12 646 12 813 12  C 979 12 1267 12 1421 0  L 1421 166  C 1011 166 986 192 986 443  L 986 1678  C 986 2269 1344 2713 1792 2713  C 2266 2713 2317 2289 2317 1980  L 2317 443  C 2317 198 2291 166 1882 166  L 1882 0  C 2035 12 2317 12 2483 12  C 2650 12 2938 12 3091 0  L 3091 166  C 2682 166 2656 192 2656 443  L 2656 1678  C 2656 2269 3014 2713 3462 2713  C 3936 2713 3987 2289 3987 1980  L 3987 443  C 3987 198 3962 166 3552 166  L 3552 0  C 3706 12 3987 12 4154 12  C 4320 12 4608 12 4762 0  L 4762 166  C 4352 166 4326 192 4326 443  L 4326 1954  z "
       transform="scale(0.015625)" /><path
       id="CMR17-29-5"
       d="M 1683 1596  C 1683 2057 1638 2839 1254 3665  C 947 4332 422 4800 346 4800  C 326 4800 301 4793 301 4761  C 301 4748 307 4742 314 4729  C 621 4408 1402 3595 1402 1603  C 1402 -396 627 -1210 314 -1530  C 307 -1543 301 -1549 301 -1562  C 301 -1594 326 -1600 346 -1600  C 416 -1600 960 -1127 1274 -422  C 1594 289 1683 981 1683 1596  z "
       transform="scale(0.015625)" /><path
       id="m5f7b34ac3f"
       d="M 0 0  L -3.5 0  "
       style="stroke: #000000; stroke-width: 0.8" /><path
       id="CMR17-56"
       d="M 3776 3762  C 3834 3903 3936 4179 4365 4185  L 4365 4352  C 4218 4339 4051 4339 3891 4339  C 3738 4339 3475 4339 3328 4352  L 3328 4185  C 3648 4166 3661 3942 3661 3903  C 3661 3833 3642 3788 3622 3737  L 2362 448  L 1043 3903  C 1024 3948 1011 3980 1011 4012  C 1011 4185 1267 4185 1402 4185  L 1402 4352  C 1197 4339 896 4339 685 4339  C 518 4339 218 4339 64 4352  L 64 4185  C 435 4185 506 4160 582 3955  L 2106 -26  C 2138 -116 2144 -128 2214 -128  C 2285 -128 2291 -116 2323 -26  L 3776 3762  z "
       transform="scale(0.015625)" /><path
       id="CMR17-6f"
       d="M 2758 1356  C 2758 2176 2163 2816 1466 2816  C 768 2816 173 2176 173 1356  C 173 550 768 -64 1466 -64  C 2163 -64 2758 550 2758 1356  z M 1466 51  C 1165 51 909 230 762 480  C 602 768 582 1126 582 1408  C 582 1676 595 2009 762 2297  C 890 2508 1139 2713 1466 2713  C 1754 2713 1997 2553 2150 2329  C 2349 2028 2349 1606 2349 1408  C 2349 1158 2336 774 2163 467  C 1984 172 1709 51 1466 51  z "
       transform="scale(0.015625)" /><path
       id="CMR17-6c"
       d="M 979 4416  L 218 4345  L 218 4179  C 595 4179 653 4141 653 3835  L 653 439  C 653 198 627 166 218 166  L 218 0  C 371 12 653 12 813 12  C 979 12 1261 12 1414 0  L 1414 166  C 1005 166 979 191 979 439  L 979 4416  z "
       transform="scale(0.015625)" /><path
       id="CMR17-74"
       d="M 966 2585  L 1862 2585  L 1862 2752  L 966 2752  L 966 3968  L 851 3968  C 838 3292 614 2700 70 2687  L 70 2585  L 627 2585  L 627 778  C 627 655 627 -64 1370 -64  C 1747 -64 1965 308 1965 784  L 1965 1151  L 1850 1151  L 1850 790  C 1850 347 1677 51 1408 51  C 1222 51 966 179 966 765  L 966 2585  z "
       transform="scale(0.015625)" /><path
       id="CMR17-61"
       d="M 2304 1656  C 2304 2048 2304 2275 2035 2534  C 1798 2751 1523 2816 1306 2816  C 800 2816 435 2408 435 1977  C 435 1740 627 1728 666 1728  C 749 1728 896 1779 896 1958  C 896 2118 774 2188 666 2188  C 640 2188 608 2182 589 2176  C 723 2594 1069 2713 1293 2713  C 1613 2713 1965 2421 1965 1875  L 1965 1632  C 1587 1619 1133 1568 774 1373  C 371 1147 256 822 256 576  C 256 77 832 -64 1171 -64  C 1523 -64 1850 135 1990 505  C 2003 219 2182 -39 2464 -39  C 2598 -39 2938 51 2938 563  L 2938 926  L 2822 926  L 2822 557  C 2822 161 2650 109 2566 109  C 2304 109 2304 446 2304 732  L 2304 1656  z M 1965 887  C 1965 323 1568 38 1216 38  C 896 38 646 278 646 576  C 646 771 730 1114 1101 1322  C 1408 1497 1760 1523 1965 1536  L 1965 887  z "
       transform="scale(0.015625)" /><path
       id="CMR17-67"
       d="M 710 1165  C 832 1068 1043 960 1299 960  C 1805 960 2240 1359 2240 1895  C 2240 2063 2189 2321 1997 2521  C 2176 2713 2438 2777 2586 2777  C 2611 2777 2650 2777 2682 2758  C 2656 2751 2598 2726 2598 2623  C 2598 2540 2656 2483 2739 2483  C 2835 2483 2886 2547 2886 2630  C 2886 2751 2790 2880 2586 2880  C 2330 2880 2106 2758 1926 2591  C 1734 2764 1504 2828 1299 2828  C 794 2828 358 2431 358 1895  C 358 1527 570 1294 634 1230  C 442 1004 442 742 442 710  C 442 544 506 300 723 166  C 390 82 128 -184 128 -517  C 128 -996 736 -1344 1466 -1344  C 2170 -1344 2803 -1009 2803 -510  C 2803 384 1856 384 1363 384  C 1216 384 954 384 922 390  C 723 422 589 601 589 825  C 589 883 589 1024 710 1165  z M 1299 1068  C 736 1068 736 1766 736 1895  C 736 2024 736 2719 1299 2719  C 1862 2719 1862 2024 1862 1895  C 1862 1766 1862 1068 1299 1068  z M 1466 -1236  C 826 -1236 384 -883 384 -517  C 384 -311 493 -118 634 -11  C 794 102 858 102 1293 102  C 1818 102 2547 102 2547 -517  C 2547 -883 2106 -1236 1466 -1236  z "
       transform="scale(0.015625)" /><path
       id="CMR17-65"
       d="M 2438 1503  C 2464 1529 2464 1542 2464 1606  C 2464 2251 2118 2816 1389 2816  C 710 2816 173 2175 173 1394  C 173 554 781 -64 1459 -64  C 2176 -64 2458 619 2458 755  C 2458 800 2419 800 2406 800  C 2362 800 2355 787 2330 709  C 2189 270 1837 51 1504 51  C 1229 51 954 206 781 490  C 582 819 582 1200 582 1503  L 2438 1503  z M 589 1600  C 634 2511 1126 2713 1382 2713  C 1818 2713 2112 2308 2118 1600  L 589 1600  z "
       transform="scale(0.015625)" /><clipPath
       id="pb92b56ae1b"><rect
         x="48.061804"
         y="9.72"
         width="364.580401"
         height="92.363267"
         id="rect21344" /></clipPath><path
       id="path18404"
       d="m 2304,1656 c 0,392 0,619 -269,878 -237,217 -512,282 -729,282 -506,0 -871,-408 -871,-839 0,-237 192,-249 231,-249 83,0 230,51 230,230 0,160 -122,230 -230,230 -26,0 -58,-6 -77,-12 134,418 480,537 704,537 320,0 672,-292 672,-838 V 1632 C 1587,1619 1133,1568 774,1373 371,1147 256,822 256,576 256,77 832,-64 1171,-64 c 352,0 679,199 819,569 13,-286 192,-544 474,-544 134,0 474,90 474,602 V 926 H 2822 V 557 c 0,-396 -172,-448 -256,-448 -262,0 -262,337 -262,623 z M 1965,887 C 1965,323 1568,38 1216,38 896,38 646,278 646,576 c 0,195 84,538 455,746 307,175 659,201 864,214 z"
       transform="scale(0.015625)" /><path
       id="path18415"
       d="m 2554,2816 c -154,-7 -628,-39 -749,-52 -39,-6 -51,-6 -128,-6 H 947 v 759 c 0,610 487,899 871,899 121,0 396,-33 537,-256 -64,0 -269,0 -269,-225 0,-153 103,-230 231,-230 115,0 230,64 230,237 0,323 -307,576 -704,576 C 1338,4518 634,4225 634,3517 V 2758 H 122 V 2591 H 634 V 442 C 634,198 608,166 198,166 V 0 c 154,12 436,12 596,12 166,0 448,0 601,-12 v 166 c -409,0 -435,26 -435,276 v 2149 h 941 c 275,0 326,-57 326,-340 V 442 c 0,-244 -25,-276 -435,-276 V 0 c 154,12 435,12 595,12 167,0 448,0 602,-12 v 166 c -410,0 -435,26 -435,276 z"
       transform="scale(0.015625)" /></defs><g
     inkscape:label="Layer 1"
     inkscape:groupmode="layer"
     id="layer1"><g
       id="figure_1"
       transform="matrix(0.35277778,0,0,0.35277778,-2.7996938e-6,0)"><g
         id="patch_1"><path
           d="M 0,141.73228 H 422.36221 V 0 H 0 Z"
           style="fill:#ffffff"
           id="path21070" /></g><g
         id="axes_1"><g
           id="patch_2"><path
             d="M 48.061804,102.08327 H 412.6422 V 9.72 H 48.061804 Z"
             style="fill:#ffffff"
             id="path21073" /></g><g
           id="line2d_1"><path
             d="m 48.061804,86.155251 0.368543,-0.854622 0.368977,0.854622 h 0.369413 l 0.369847,-0.683698 0.370282,0.683698 0.370716,0.341848 0.37115,-0.341848 0.371583,0.170924 0.372017,-0.170924 h 0.372449 l 0.372883,0.341848 1.12124,-0.512773 0.37461,0.341849 0.375042,-0.170924 0.375472,-0.341849 0.375904,0.170924 0.376333,0.341849 0.753958,-0.341849 h 0.377623 l 0.378053,0.341849 0.757392,-0.683697 0.379338,0.854621 0.379767,-0.170924 0.380195,-0.341849 h 0.380622 l 0.38105,0.512773 0.381477,-0.170924 0.381903,0.170924 0.38233,-0.854621 h 0.382756 l 0.383181,0.341848 0.76764,-0.341848 0.384458,0.512773 0.384883,-0.170925 0.385306,-0.341848 0.385731,0.341848 h 1.159735 l 0.387425,-0.341848 0.387848,0.170924 0.388269,-0.512773 0.388693,0.341849 0.389114,0.170924 0.389535,-0.683698 0.389957,1.025547 0.390378,-0.683698 0.390798,0.512773 0.391219,-0.341848 0.391639,-0.683698 h 0.784538 l 0.392898,0.170924 h 0.787053 l 0.394154,-0.512773 0.394572,0.341849 0.39499,-0.683698 0.395408,0.854622 0.395825,-0.854622 0.396242,0.170925 0.396659,-0.170925 0.397076,-0.683697 0.397491,0.341849 h 0.397907 l 0.797062,-0.341849 0.399153,0.170924 0.399568,-1.025546 0.399982,0.341849 0.400397,-0.170925 0.400811,0.512773 0.401224,-0.854622 h 0.803688 l 0.402463,-1.025546 0.402876,0.512773 0.403288,0.170925 0.403699,-0.512773 1.213568,-0.512774 0.405345,0.170925 0.405754,-1.025547 0.406166,-0.341848 0.813559,-0.341849 0.407394,-0.512773 0.407803,0.341848 0.408212,-1.19647 0.40862,-0.170925 0.409028,-0.341848 0.409437,0.341848 0.820095,-2.051092 0.410658,0.854622 1.234414,-2.051093 h 0.412283 l 0.41269,-0.683698 0.413094,-0.170924 0.4135,-0.683698 0.413904,-1.025546 0.829021,-0.341849 0.415117,-0.512773 0.415521,-1.196471 0.83225,-1.025546 0.41673,-1.196471 0.834666,-1.025546 h 0.417937 l 0.418337,-1.196471 0.418739,-0.683697 0.419141,-0.341849 0.419541,-1.880168 0.419941,-0.341849 0.420342,-2.392942 0.841882,-1.025546 0.421541,-1.538319 0.421939,-1.965631 0.422339,-0.256387 0.422736,-1.538319 0.423134,-0.640967 0.42353,-1.410126 0.42393,-0.640966 0.42433,-2.051093 0.42473,0.128193 0.42512,-2.563865 0.42552,-1.15374 0.85222,-3.204832 0.42671,-0.128194 0.8546,-3.589412 0.42789,0.128193 0.42828,-1.025546 0.42868,0.76916 0.42908,-0.170925 0.42946,0.170925 0.42986,-0.427311 0.43026,-8.084724 0.43064,6.460942 0.43104,2.478404 0.43144,-0.529866 0.43182,-4.063727 0.43221,-1.576778 0.43261,4.20474 0.433,0.833257 0.43339,2.023622 0.43377,1.0988 0.43417,-1.199523 0.43456,2.457038 0.43495,-1.404022 0.43534,2.490613 0.43572,-0.04395 0.43612,5.238833 0.4365,-6.765758 0.4369,8.346808 0.43727,-1.858803 0.43767,0.628148 0.43806,-0.05128 0.43844,-1.858802 0.43883,2.884349 0.43921,-1.845984 0.43961,4.316618 0.43999,-3.239794 0.44037,0.940084 0.44076,2.085278 0.44114,4.717513 0.44153,1.230655 0.44191,-0.820437 0.4423,-2.768975 0.44268,2.222017 0.44307,-0.376033 0.44344,6.358387 0.44383,-4.444034 0.44422,1.709244 0.4446,3.11937 0.44498,0.38458 0.44536,-1.281933 0.44574,0.683697 0.44612,3.290295 0.89339,-0.726429 0.44727,0.170924 0.44765,2.734791 h 0.44802 l 0.44841,0.341849 0.44878,1.19647 0.44917,0.854622 0.44954,0.170925 0.44992,0.854622 0.4503,0.170924 0.45068,0.854622 0.45106,0.341849 0.45143,1.025546 1.8095,2.051093 0.45332,0.341848 0.45369,0.512774 0.90851,0.683697 0.45481,0.683698 0.45519,0.341849 h 0.45557 l 0.91225,1.025546 0.45669,-0.170925 0.45706,0.170925 1.83196,2.051093 0.45892,-0.170925 0.45929,0.512773 0.45967,-0.170924 0.46003,0.512773 h 0.46041 l 0.46077,0.427311 0.46114,-0.256387 0.46152,0.170925 0.46188,0.683697 h 0.46226 l 0.46262,-0.341848 0.92635,1.025546 0.46372,-0.512773 0.4641,0.854622 0.46446,-0.512773 0.46483,0.683697 0.46519,-0.170924 0.46557,0.170924 h 0.46592 l 0.4663,0.341849 0.46666,-0.170924 0.46702,0.170924 0.46739,0.683698 0.46776,-0.170925 0.46812,-0.512773 0.46848,0.683698 0.46885,-0.170925 0.46921,0.512773 0.46958,-0.512773 0.46994,0.512773 0.4703,-0.512773 0.47066,0.341849 0.47103,-0.341849 0.94313,0.683698 0.94459,-0.341849 0.47283,0.512773 0.47319,-0.512773 0.47356,0.08546 0.47391,-0.08546 0.94891,0.683697 0.47499,-0.854621 0.47535,0.512773 0.47571,-0.341849 0.47607,0.170924 0.47642,0.854622 0.47679,-0.940084 0.47714,-0.08546 0.4775,0.341849 0.47785,-0.170925 0.47821,0.683698 0.47857,-0.512773 0.47892,0.341848 0.47928,-0.341848 0.47964,0.170924 0.96033,-0.683697 h 0.96175 l 0.48141,0.512773 0.48176,-0.640967 0.48212,0.640967 0.48246,-0.683698 h 0.48282 l 0.48318,0.512773 0.48352,-0.512773 h 0.48388 l 0.48423,-0.341849 0.48458,0.512774 0.48493,-1.025547 0.48528,0.854622 0.48564,-0.341849 0.48598,0.341849 0.48633,-1.367395 0.48669,0.854622 0.48703,-0.170924 0.97511,-1.367396 0.48808,1.196471 0.48843,-1.196471 0.97789,0.341849 0.48948,-0.170924 0.48981,0.512773 0.49017,-1.196471 h 0.49051 l 0.49086,-0.341849 0.4912,0.170925 0.49155,-0.170925 0.49189,-0.341848 h 0.49224 l 0.49259,-0.341849 0.49293,-0.512773 0.98689,-0.683698 0.49396,-0.854622 0.4943,-0.170924 0.49465,-0.854622 0.49499,0.170924 0.49533,-0.512773 h 0.49568 l 0.49602,-0.512773 0.49635,-1.196471 0.99375,-0.341849 0.49738,-1.367395 0.49772,0.170925 0.49807,-0.683698 0.4984,-0.170924 0.49874,-1.025547 0.49909,-0.341848 0.99918,-1.53832 0.5001,-0.512773 0.50043,-1.025546 1.00189,-1.196471 1.50537,-3.418488 0.50246,-1.709244 0.5028,-0.683697 0.50313,-1.025547 0.50347,-0.683697 h 0.5038 l 0.50414,-1.709244 0.50448,-2.73479 h 0.50481 l 1.01062,-4.614959 0.50581,-0.341849 0.50615,-2.392941 0.50648,-0.512773 0.50681,-1.196471 0.50714,-2.73479 0.50748,0.683697 1.52442,-9.35811 0.5088,1.15374 0.50913,2.461311 0.50946,0.615328 0.5098,1.794706 0.51012,-4.956808 0.51046,-3.401395 0.51078,1.33321 0.51111,3.862891 0.51144,-1.709243 0.51178,1.025546 0.51209,-3.809172 0.51243,3.076639 0.51275,5.655155 0.51309,-2.974084 0.5134,3.127916 0.51374,4.21756 0.51406,-6.025085 0.51439,0.235021 0.51472,-0.712185 0.51504,1.652269 1.03105,5.982354 0.51602,-0.830205 0.51634,1.684827 0.51667,0.717882 0.51698,2.358757 0.51732,1.623781 0.51763,-4.70042 0.51796,9.449677 0.51829,-5.26203 0.5186,-0.964502 0.51893,5.493998 0.51925,-1.766218 0.51957,3.432731 0.51989,0.213656 0.52021,0.341849 0.52054,-0.683698 0.52085,2.563866 0.52118,1.196471 0.52149,2.051092 0.52182,0.512773 0.52214,0.341849 1.56831,2.563866 0.52341,1.196471 h 0.52373 l 0.52405,1.367395 0.52436,0.512773 0.52468,0.683698 0.525,0.170924 0.52531,1.53832 0.52563,0.512773 h 0.52595 l 0.52626,0.512773 2.1082,2.563866 0.52784,0.512773 0.52815,-0.170924 0.52846,0.854621 0.52878,0.341849 0.52909,0.170925 0.52941,0.683697 0.52971,0.170925 h 0.53003 l 0.53034,0.170924 0.53066,0.683698 h 0.53096 l 0.53128,0.854621 0.53158,-0.170924 h 0.5319 l 0.53221,0.341849 0.53252,0.170924 1.06596,0.555505 0.53345,0.299117 0.53375,-0.170924 0.53406,0.170924 0.53438,0.512773 0.53468,-0.341848 0.53498,0.512773 0.5353,-0.170925 0.5356,0.512774 1.07213,0.341848 0.53652,-0.170924 0.53683,0.512773 0.53713,-0.170924 0.53744,0.170924 0.53775,1.196471 0.53805,-1.025546 1.61598,-0.512774 0.53926,0.683698 0.53957,-0.341849 0.53988,0.512773 0.54017,-0.170924 0.54048,0.341849 0.54078,0.170924 0.54109,-0.170924 0.54138,0.170924 h 0.54169 l 0.54199,0.170924 h 0.54229 l 0.54259,-0.170924 h 0.54289 l 0.54319,-0.170924 0.54349,0.341848 0.54379,-0.170924 0.54409,-0.512773 0.54438,0.341849 0.54469,-0.341849 0.54498,0.341849 0.54529,-0.341849 0.54558,0.341849 0.54588,-0.341849 0.54617,-0.170924 h 0.54647 l 1.09384,-0.341849 0.54736,0.341849 0.54766,0.512773 0.54795,-1.025547 0.54825,0.341849 0.54854,-1.025546 0.54884,1.025546 h 0.54913 l 0.54942,-0.170924 0.54973,0.170924 0.55001,-0.512773 0.55031,0.170924 0.55059,-0.683697 h 0.5509 l 0.55118,0.170924 0.55148,-0.341849 0.55177,0.854622 0.55206,-1.367395 0.55235,0.170925 1.10557,-1.196471 0.55323,0.683697 1.10731,-1.025546 0.5541,0.341849 1.10905,-1.53832 0.55496,0.170925 0.55525,-0.08546 0.55553,0.08546 0.55583,-0.683698 0.55611,-1.709244 0.5564,1.025547 0.55668,-1.53832 0.55697,0.341849 0.55726,-0.341849 0.55755,-0.170924 0.55783,-1.53832 0.55812,0.512773 0.5584,-1.367395 0.55868,-0.341849 0.55897,-0.512773 0.55926,-0.341848 0.55954,-1.367396 0.55982,-0.854622 0.56011,-0.170924 0.56039,-1.025546 0.56067,-1.367395 0.56096,-1.025547 0.56124,-0.341848 0.56152,-1.880169 1.12388,-2.392941 0.56237,-0.683698 0.56264,-1.196471 0.56293,-0.683697 0.56321,-1.709244 0.56348,-1.196471 0.56377,-2.563866 0.56405,-0.854622 1.12893,-3.418487 h 0.56488 l 0.56517,-4.444034 0.56543,-0.08546 0.56572,-2.649328 0.566,-3.589412 0.56627,-0.683697 0.56655,-0.170925 0.56683,0.170925 0.5671,-4.230379 0.56738,2.862983 0.56765,-2.905714 h 0.56793 l 0.56821,-4.059454 0.56848,2.862983 0.56875,0.341849 0.56903,4.785883 0.56931,-4.187648 0.56958,2.991177 1.13997,2.856879 1.14107,3.937366 0.57094,0.81189 0.57122,-5.982353 0.57148,6.901072 0.57176,-0.693409 0.57203,-1.357684 0.5723,4.294476 0.57257,0.974269 0.57284,-0.525593 0.57311,0.491408 0.57339,1.495588 0.57365,4.166282 0.57392,-2.442794 0.57419,6.609076 0.57445,-6.226531 0.57473,4.303632 0.575,1.922899 0.57526,-1.367395 0.57553,3.845799 0.57579,-2.820253 0.57607,3.315934 0.57633,1.743428 0.5766,0.282026 0.57686,-0.38458 0.57713,1.410126 0.57739,2.179286 0.57767,0.512773 0.57792,1.196471 0.57819,0.341849 0.57845,1.19647 0.57872,0.512773 1.73774,2.563866 1.15981,1.025547 0.5803,1.19647 0.58055,-0.170924 0.58083,0.170924 0.58108,1.025547 0.58134,0.683697 0.58161,0.341849 0.58186,0.170924 0.58213,0.854622 0.58239,-0.170924 1.16555,1.025546 0.58317,0.854622 0.58342,0.170925 0.58368,-0.170925 1.16814,0.683698 1.16918,0.341849 h 0.58497 l 0.58523,0.341848 1.17123,0.341849 0.586,0.512773 h 0.58625 l 0.58651,0.683698 0.58677,-0.170924 h 0.58702 l 0.58727,0.512773 0.58753,-0.341849 h 0.58779 l 0.58803,0.341849 h 0.5883 l 0.58854,0.512773 0.5888,-0.341849 0.58905,0.341849 0.5893,-0.341849 0.58956,0.427311 0.5898,-0.256386 0.59006,0.170924 h 0.59031 l 0.59056,0.170924 h 0.59081 l 0.59107,0.170925 0.59131,-0.512773 0.59156,0.170924 0.59181,0.341849 1.18437,0.170924 0.59256,-0.170924 0.59281,-0.341849 0.59306,0.470042 0.5933,-0.128193 h 0.59355 l 0.5938,-0.341849 0.59404,0.341849 0.59429,0.170924 0.59454,-0.683697 0.59479,0.341848 h 1.78583 l 0.59576,-0.341848 0.59601,0.341848 0.59626,-0.341848 h 0.5965 l 1.19373,-0.683698 0.59723,-0.170924 0.59748,0.170924 1.19567,0.04273 0.5982,-0.213655 0.59844,-0.341849 0.59869,-0.170925 h 0.59892 l 0.59917,0.170925 0.59941,-0.512773 0.59965,0.341848 0.59989,-0.512773 0.60012,-0.683697 0.60037,0.341848 1.20146,-1.367395 0.60108,-0.170924 0.60133,-0.683698 h 0.60156 l 0.6018,-1.025546 0.60203,0.854622 0.60228,-0.512773 0.60251,-0.683698 h 0.60275 l 1.2062,-1.367395 0.60346,-0.170924 0.60369,-1.196471 0.60393,-0.341849 0.60416,-0.512773 0.6044,-1.196471 0.60463,-0.341848 0.60487,-0.512774 0.6051,-1.025546 0.60534,-0.341849 1.21136,-2.222017 0.60604,-0.854622 1.21276,-2.73479 0.60673,-0.683698 1.21415,-2.563865 1.82297,-4.956808 0.60811,-1.025546 0.60835,-1.367395 0.60857,-3.247564 0.60881,-0.341848 0.60903,-1.367396 0.60926,-2.051092 0.60949,-1.53832 v 0"
             clip-path="url(#pb92b56ae1b)"
             style="fill:none;stroke:#00008b;stroke-width:1.5;stroke-linecap:square;stroke-opacity:0.5"
             id="path21076" /></g><g
           id="line2d_2"><path
             d="M -1,87.763371 0.383849,86.988507 1.532931,85.706574 3.842209,84.424641 5.002382,83.142708 6.16623,81.219809 h 1.167512 l 1.171164,-1.922899 1.174805,-0.640967 1.178436,-3.204832 1.182054,-0.640967 2.374921,-5.127731 1.192845,-0.640967 1.196419,-4.486765 1.199983,-1.281933 1.203534,-2.563866 1.207076,-3.204832 1.210605,-1.281933 2.431756,-5.127732 1.221129,-3.204832 1.224613,-2.563866 1.228088,-1.922899 1.231551,-0.640967 2.473446,-3.845799 1.241873,-3.204832 1.245291,-4.486765 1.248699,-5.768698 1.252095,-5.127732 1.25548,-2.563866 1.258854,-1.922899 1.262216,0.640966 h 1.265569 l 2.541146,3.845799 1.275556,6.409665 1.278863,0.640966 1.282159,-2.563866 h 1.285444 l 1.288718,-1.281933 3.885682,3.845799 1.3017,4.486765 1.304919,20.510927 1.308125,44.226686 1.31132,-24.997692 1.314505,-16.665128 1.317679,-1.281933 h 2.644832 l 1.327132,0.640966 1.33026,1.281933 1.333378,2.563866 1.336484,0.640967 1.33958,3.204832 2.6884,3.845799 1.348799,5.127732 1.35185,4.486765 1.354889,0.640966 1.357918,1.9229 2.724876,2.563865 1.366936,1.9229 1.36992,0.640966 1.372893,2.563866 1.375854,1.9229 h 1.378805 l 1.381745,0.640966 h 1.384672 l 1.387589,2.563866 2.783886,1.281933 h 1.396274 l 1.399146,-0.640967 1.402012,0.640967 5.63642,-2.563866 h 1.41614 l 1.41894,-0.640967 1.42173,-1.922899 1.4245,-0.640966 1.42726,-1.281933 2.86275,-3.845799 1.43548,-1.281933 1.43819,-4.486765 1.44089,-1.9229 2.88987,-5.127731 1.44894,-3.845799 1.45161,-3.204832 1.45425,-1.9229 1.4569,-4.486765 1.45952,-5.768698 1.46214,-1.9229 1.46474,-3.204832 1.46734,-2.563866 1.46992,-1.281933 1.47249,-2.563866 1.47505,-5.127731 1.4776,-6.409665 1.48014,-7.050631 1.48267,-3.845799 1.48518,-1.281933 1.48769,2.563866 1.49018,1.281933 1.49266,7.050631 1.49513,4.486765 1.4976,-3.204832 1.50004,-0.640966 3.00739,1.281933 1.50733,1.281933 1.50973,9.614496 1.51212,60.250848 1.5145,-28.202524 1.51688,-13.460296 3.04082,1.281933 1.52392,-0.640967 1.52625,1.281933 1.52856,0.640967 3.06403,5.127731 1.53544,3.204833 1.53771,3.845799 1.53998,3.204832 1.54222,6.409664 4.64004,1.9229 1.55111,2.563866 1.55329,1.281933 1.55548,0.640966 1.55765,2.563866 3.12177,1.281933 1.56409,1.281933 1.56622,-0.640967 1.56834,0.640967 1.57043,-1.281933 h 3.14715 l 1.57668,-1.281933 h 1.57874 l 1.58079,-0.640967 3.16768,-2.563865 1.58686,-2.563866 1.58887,-0.640967 1.59086,-1.922899 1.59285,-3.845799 1.59481,-2.563866 1.59677,-3.204832 1.59872,-2.563866 1.60066,-4.486765 1.60258,-2.563866 1.60449,-1.922899 1.6064,-5.127732 1.60829,-4.486765 1.61017,-3.845799 1.61205,-3.204832 h 1.61389 l 1.61575,-0.640967 1.61758,-3.845799 3.24063,-15.383195 1.62303,-4.486765 1.62482,-1.922899 1.62659,3.845798 1.62837,3.204833 1.63012,10.255463 1.63188,-2.563866 1.6336,-1.281933 1.63534,-0.640966 3.27579,1.281933 1.64044,7.691597 1.64212,53.841183 1.64379,-32.048323 h 1.64545 l 1.64709,5.127732 1.64873,3.845799 1.65036,-5.127732 1.65196,-4.486765 1.65357,1.922899 1.65516,2.563866 1.65675,1.922899 1.65831,3.845799 1.65986,2.563866 1.66142,7.050631 1.66295,2.563866 1.66447,-0.640967 1.66599,1.9229 1.66749,0.640966 1.66898,2.563866 3.34238,1.281933 1.67339,1.281933 5.02879,1.922899 1.6791,-0.640966 h 1.6805 l 6.73582,-2.563866 1.68734,-1.281933 3.37869,-3.845799 1.69132,-1.281933 3.38653,-6.409664 1.69518,-2.563866 1.69646,-3.845799 1.69771,-2.563866 1.69896,1.281933 1.70019,-7.050631 1.70142,-6.409665 1.70263,-3.204832 1.70383,-5.127732 h 1.70502 l 1.7062,-1.281932 1.70736,0.640966 1.70852,-5.127732 1.70967,-8.97353 1.71081,-7.691598 1.71192,-3.204832 1.71304,0.640966 1.71414,3.204833 1.71522,9.614497 1.71631,-1.281933 h 1.71738 l 1.71843,-0.640967 1.71947,-1.922899 1.72051,1.281933 1.72153,10.89643 1.72255,32.689289 1.72354,-14.101262 1.72453,17.947061 1.72552,-14.742229 1.72648,-1.922899 1.72743,3.845799 1.72838,-3.204833 1.72932,1.281933 3.46138,5.127732 1.73205,3.204832 1.73293,5.127732 1.73382,7.050631 1.73468,1.281933 1.73554,-0.640966 1.73638,1.922899 h 1.73722 l 1.73804,1.922899 1.73884,0.640967 1.73965,1.281933 5.22364,1.922899 3.48622,-1.281933 1.74421,-1.281933 3.49059,-1.281933 1.74634,-1.281932 v 0"
             clip-path="url(#pb92b56ae1b)"
             style="fill:none;stroke:#8b0000;stroke-width:1.5;stroke-linecap:square;stroke-opacity:0.5"
             id="path21079" /></g><g
           id="matplotlib.axis_1"><g
             id="xtick_1"><g
               id="line2d_3"><defs
                 id="defs21083"><path
                   id="path21384"
                   d="M 0,0 V 3.5"
                   style="stroke:#000000;stroke-width:0.8" /></defs><g
                 id="g21087"><use
                   xlink:href="#ma6d76110ff"
                   x="80.111664"
                   y="102.08327"
                   style="stroke:#000000;stroke-width:0.8"
                   id="use21085" /></g></g><g
               id="text_1"><!-- $\mathdefault{0.75}$ --><g
                 transform="matrix(0.09,0,0,-0.09,71.920211,115.30992)"
                 id="g21104"><defs
                   id="defs21094"><path
                     id="path21390"
                     d="m 2688,2038 c 0,392 -6,1061 -275,1575 -237,450 -615,611 -947,611 -308,0 -698,-142 -941,-604 C 269,3137 243,2539 243,2038 c 0,-367 7,-926 205,-1415 275,-662 768,-751 1018,-751 294,0 742,121 1004,732 192,444 218,964 218,1434 z M 1466,-26 c -410,0 -653,354 -743,842 -70,380 -70,933 -70,1293 0,495 0,906 83,1298 122,547 480,714 730,714 262,0 601,-174 723,-701 83,-366 89,-797 89,-1311 0,-418 0,-933 -76,-1312 C 2067,96 1690,-26 1466,-26 Z"
                     transform="scale(0.015625)" /><path
                     id="path21392"
                     d="M 1178,307 C 1178,492 1024,620 870,620 685,620 557,467 557,313 557,128 710,0 864,0 c 186,0 314,153 314,307 z"
                     transform="scale(0.015625)" /><path
                     id="path21394"
                     d="m 2886,3955 v 141 H 1382 c -748,0 -761,70 -787,192 H 480 L 294,3104 h 116 c 19,122 64,448 140,569 39,51 512,51 621,51 H 2579 L 1869,2670 C 1395,1961 1069,1003 1069,166 c 0,-77 0,-294 230,-294 231,0 231,217 231,300 v 294 c 0,1048 179,1738 473,2178 z"
                     transform="scale(0.015625)" /><path
                     id="path21396"
                     d="m 730,3750 c 64,-26 326,-109 595,-109 595,0 921,320 1107,499 0,51 0,84 -38,84 -7,0 -20,0 -71,-26 -224,-96 -486,-166 -806,-166 -192,0 -480,23 -794,159 -70,33 -83,33 -89,33 -32,0 -39,-7 -39,-134 V 2231 c 0,-118 0,-151 64,-151 32,0 45,13 77,59 205,296 486,421 806,421 224,0 704,-145 704,-1267 0,-206 0,-577 -192,-871 C 1894,159 1645,25 1370,25 947,25 518,319 403,812 c 26,-6 77,-19 103,-19 83,0 243,45 243,243 0,173 -122,244 -243,244 -148,0 -244,-90 -244,-269 0,-557 442,-1139 1120,-1139 660,0 1287,569 1287,1395 0,787 -499,1395 -1120,1395 -327,0 -602,-122 -819,-358 z"
                     transform="scale(0.015625)" /></defs><use
                   xlink:href="#CMR17-30-1"
                   transform="scale(0.996264)"
                   id="use21096" /><use
                   xlink:href="#CMMI12-3a-9"
                   transform="matrix(0.996264,0,0,0.996264,45.690477,0)"
                   id="use21098" /><use
                   xlink:href="#CMR17-37-4"
                   transform="matrix(0.996264,0,0,0.996264,72.787654,0)"
                   id="use21100" /><use
                   xlink:href="#CMR17-35-3"
                   transform="matrix(0.996264,0,0,0.996264,118.47813,0)"
                   id="use21102" /></g></g></g><g
             id="xtick_2"><g
               id="line2d_4"><g
                 id="g21110"><use
                   xlink:href="#ma6d76110ff"
                   x="128.31259"
                   y="102.08327"
                   style="stroke:#000000;stroke-width:0.8"
                   id="use21108" /></g></g><g
               id="text_2"><!-- $\mathdefault{1.00}$ --><g
                 transform="matrix(0.09,0,0,-0.09,120.12114,115.30992)"
                 id="g21124"><defs
                   id="defs21114"><path
                     id="path21409"
                     d="m 1702,4083 c 0,134 -6,141 -96,141 -249,-297 -627,-391 -985,-404 -19,0 -51,0 -58,-12 -6,-13 -6,-26 -6,-160 198,0 531,38 787,191 V 467 C 1344,243 1331,166 781,166 H 589 V 0 c 307,6 627,12 934,12 307,0 627,-6 935,-12 v 166 h -192 c -551,0 -564,70 -564,301 z"
                     transform="scale(0.015625)" /></defs><use
                   xlink:href="#CMR17-31-0"
                   transform="scale(0.996264)"
                   id="use21116" /><use
                   xlink:href="#CMMI12-3a-9"
                   transform="matrix(0.996264,0,0,0.996264,45.690477,0)"
                   id="use21118" /><use
                   xlink:href="#CMR17-30-1"
                   transform="matrix(0.996264,0,0,0.996264,72.787654,0)"
                   id="use21120" /><use
                   xlink:href="#CMR17-30-1"
                   transform="matrix(0.996264,0,0,0.996264,118.47813,0)"
                   id="use21122" /></g></g></g><g
             id="xtick_3"><g
               id="line2d_5"><g
                 id="g21130"><use
                   xlink:href="#ma6d76110ff"
                   x="176.51352"
                   y="102.08327"
                   style="stroke:#000000;stroke-width:0.8"
                   id="use21128" /></g></g><g
               id="text_3"><!-- $\mathdefault{1.25}$ --><g
                 transform="matrix(0.09,0,0,-0.09,168.32207,115.30992)"
                 id="g21144"><defs
                   id="defs21134"><path
                     id="path21422"
                     d="M 2669,990 H 2554 C 2490,537 2438,460 2413,422 2381,371 1920,371 1830,371 H 602 c 230,249 678,702 1222,1225 390,370 845,804 845,1437 0,755 -602,1191 -1274,1191 -704,0 -1133,-621 -1133,-1197 0,-250 186,-282 263,-282 64,0 256,38 256,262 0,199 -167,257 -256,257 -39,0 -77,-7 -103,-20 122,544 493,813 884,813 556,0 921,-441 921,-1024 0,-556 -326,-1035 -691,-1450 L 262,147 V 0 h 2253 z"
                     transform="scale(0.015625)" /></defs><use
                   xlink:href="#CMR17-31-0"
                   transform="scale(0.996264)"
                   id="use21136" /><use
                   xlink:href="#CMMI12-3a-9"
                   transform="matrix(0.996264,0,0,0.996264,45.690477,0)"
                   id="use21138" /><use
                   xlink:href="#CMR17-32-5"
                   transform="matrix(0.996264,0,0,0.996264,72.787654,0)"
                   id="use21140" /><use
                   xlink:href="#CMR17-35-3"
                   transform="matrix(0.996264,0,0,0.996264,118.47813,0)"
                   id="use21142" /></g></g></g><g
             id="xtick_4"><g
               id="line2d_6"><g
                 id="g21150"><use
                   xlink:href="#ma6d76110ff"
                   x="224.71445"
                   y="102.08327"
                   style="stroke:#000000;stroke-width:0.8"
                   id="use21148" /></g></g><g
               id="text_4"><!-- $\mathdefault{1.50}$ --><g
                 transform="matrix(0.09,0,0,-0.09,216.523,115.30992)"
                 id="g21161"><use
                   xlink:href="#CMR17-31-0"
                   transform="scale(0.996264)"
                   id="use21153" /><use
                   xlink:href="#CMMI12-3a-9"
                   transform="matrix(0.996264,0,0,0.996264,45.690477,0)"
                   id="use21155" /><use
                   xlink:href="#CMR17-35-3"
                   transform="matrix(0.996264,0,0,0.996264,72.787654,0)"
                   id="use21157" /><use
                   xlink:href="#CMR17-30-1"
                   transform="matrix(0.996264,0,0,0.996264,118.47813,0)"
                   id="use21159" /></g></g></g><g
             id="xtick_5"><g
               id="line2d_7"><g
                 id="g21167"><use
                   xlink:href="#ma6d76110ff"
                   x="272.91537"
                   y="102.08327"
                   style="stroke:#000000;stroke-width:0.8"
                   id="use21165" /></g></g><g
               id="text_5"><!-- $\mathdefault{1.75}$ --><g
                 transform="matrix(0.09,0,0,-0.09,264.72393,115.30992)"
                 id="g21178"><use
                   xlink:href="#CMR17-31-0"
                   transform="scale(0.996264)"
                   id="use21170" /><use
                   xlink:href="#CMMI12-3a-9"
                   transform="matrix(0.996264,0,0,0.996264,45.690477,0)"
                   id="use21172" /><use
                   xlink:href="#CMR17-37-4"
                   transform="matrix(0.996264,0,0,0.996264,72.787654,0)"
                   id="use21174" /><use
                   xlink:href="#CMR17-35-3"
                   transform="matrix(0.996264,0,0,0.996264,118.47813,0)"
                   id="use21176" /></g></g></g><g
             id="xtick_6"><g
               id="line2d_8"><g
                 id="g21184"><use
                   xlink:href="#ma6d76110ff"
                   x="321.1163"
                   y="102.08327"
                   style="stroke:#000000;stroke-width:0.8"
                   id="use21182" /></g></g><g
               id="text_6"><!-- $\mathdefault{2.00}$ --><g
                 transform="matrix(0.09,0,0,-0.09,312.92486,115.30992)"
                 id="g21195"><use
                   xlink:href="#CMR17-32-5"
                   transform="scale(0.996264)"
                   id="use21187" /><use
                   xlink:href="#CMMI12-3a-9"
                   transform="matrix(0.996264,0,0,0.996264,45.690477,0)"
                   id="use21189" /><use
                   xlink:href="#CMR17-30-1"
                   transform="matrix(0.996264,0,0,0.996264,72.787654,0)"
                   id="use21191" /><use
                   xlink:href="#CMR17-30-1"
                   transform="matrix(0.996264,0,0,0.996264,118.47813,0)"
                   id="use21193" /></g></g></g><g
             id="xtick_7"><g
               id="line2d_9"><g
                 id="g21201"><use
                   xlink:href="#ma6d76110ff"
                   x="369.31726"
                   y="102.08327"
                   style="stroke:#000000;stroke-width:0.8"
                   id="use21199" /></g></g><g
               id="text_7"><!-- $\mathdefault{2.25}$ --><g
                 transform="matrix(0.09,0,0,-0.09,361.1258,115.30992)"
                 id="g21212"><use
                   xlink:href="#CMR17-32-5"
                   transform="scale(0.996264)"
                   id="use21204" /><use
                   xlink:href="#CMMI12-3a-9"
                   transform="matrix(0.996264,0,0,0.996264,45.690477,0)"
                   id="use21206" /><use
                   xlink:href="#CMR17-32-5"
                   transform="matrix(0.996264,0,0,0.996264,72.787654,0)"
                   id="use21208" /><use
                   xlink:href="#CMR17-35-3"
                   transform="matrix(0.996264,0,0,0.996264,118.47813,0)"
                   id="use21210" /></g></g></g><g
             id="text_8"><!-- $x$ ($\mu$m) --><g
               transform="matrix(0.11,0,0,-0.11,213.2642,129.27256)"
               id="g21233"><defs
                 id="defs21221"><path
                   id="path21472"
                   d="m 3034,2624 c -205,-39 -282,-193 -282,-314 0,-154 122,-205 211,-205 192,0 327,166 327,339 0,250 -308,372 -576,372 -391,0 -608,-365 -666,-487 -147,461 -544,487 -659,487 -653,0 -999,-823 -999,-967 0,-26 26,-59 71,-59 51,0 64,39 77,65 217,717 646,832 832,832 288,0 345,-249 345,-403 0,-141 -38,-291 -115,-606 L 1382,778 C 1286,390 1101,64 762,64 730,64 570,64 435,126 666,166 717,358 717,435 717,563 621,640 499,640 346,640 179,505 179,300 179,57 480,-64 755,-64 c 307,0 525,217 659,479 103,-351 423,-479 660,-479 652,0 998,815 998,960 0,33 -26,59 -64,59 -58,0 -64,-33 -83,-85 C 2752,300 2381,64 2093,64 c -224,0 -346,140 -346,403 0,140 26,245 128,679 l 224,893 c 96,386 314,648 608,648 13,0 192,0 327,-63 z"
                   transform="scale(0.015625)" /><path
                   id="path21474"
                   d="m 1958,-1562 c 0,6 0,19 -19,38 -294,301 -1081,1121 -1081,3120 0,1999 774,2812 1088,3133 0,6 12,19 12,38 0,20 -19,33 -44,33 -71,0 -615,-475 -928,-1180 C 666,2909 576,2218 576,1603 c 0,-462 45,-1243 429,-2070 307,-666 832,-1133 909,-1133 32,0 44,12 44,38 z"
                   transform="scale(0.015625)" /><path
                   id="path21476"
                   d="m 922,140 c 160,-147 396,-204 614,-204 410,0 691,274 838,472 64,-338 333,-472 557,-472 192,0 346,115 461,345 102,217 192,606 192,632 0,31 -26,57 -64,57 -58,0 -64,-32 -90,-128 -96,-376 -217,-778 -480,-778 -185,0 -198,165 -198,293 0,147 58,377 102,568 l 180,690 c 25,121 96,408 128,523 38,153 108,428 108,453 0,96 -76,161 -172,161 -58,0 -192,-26 -244,-218 L 2406,759 C 2374,632 2374,619 2291,517 2214,408 1965,64 1562,64 c -359,0 -474,261 -474,561 0,186 58,409 83,518 l 288,1149 c 32,121 83,325 83,364 0,102 -83,160 -166,160 -58,0 -198,-20 -250,-224 L 198,-1085 c -6,-31 -19,-69 -19,-106 0,-96 77,-160 173,-160 186,0 224,147 269,322 z"
                   transform="scale(0.015625)" /><path
                   id="path21478"
                   d="m 4326,1954 c 0,322 -57,862 -819,862 -435,0 -736,-296 -851,-643 h -6 c -77,527 -455,643 -813,643 -506,0 -768,-392 -864,-650 h -7 v 650 l -755,-71 v -167 c 378,0 435,-38 435,-347 V 443 C 646,198 621,166 211,166 V 0 c 154,12 435,12 602,12 166,0 454,0 608,-12 v 166 c -410,0 -435,26 -435,277 v 1235 c 0,591 358,1035 806,1035 474,0 525,-424 525,-733 V 443 c 0,-245 -26,-277 -435,-277 V 0 c 153,12 435,12 601,12 167,0 455,0 608,-12 v 166 c -409,0 -435,26 -435,277 v 1235 c 0,591 358,1035 806,1035 474,0 525,-424 525,-733 V 443 c 0,-245 -25,-277 -435,-277 V 0 c 154,12 435,12 602,12 166,0 454,0 608,-12 v 166 c -410,0 -436,26 -436,277 z"
                   transform="scale(0.015625)" /><path
                   id="path21480"
                   d="m 1683,1596 c 0,461 -45,1243 -429,2069 -307,667 -832,1135 -908,1135 -20,0 -45,-7 -45,-39 0,-13 6,-19 13,-32 307,-321 1088,-1134 1088,-3126 0,-1999 -775,-2813 -1088,-3133 -7,-13 -13,-19 -13,-32 0,-32 25,-38 45,-38 70,0 614,473 928,1178 320,711 409,1403 409,2018 z"
                   transform="scale(0.015625)" /></defs><use
                 xlink:href="#CMMI12-78-0"
                 transform="scale(0.996264)"
                 id="use21223" /><use
                 xlink:href="#CMR17-28-7"
                 transform="matrix(0.996264,0,0,0.996264,85.510026,0)"
                 id="use21225" /><use
                 xlink:href="#CMMI12-16-4"
                 transform="matrix(0.996264,0,0,0.996264,120.79079,0)"
                 id="use21227" /><use
                 xlink:href="#CMR17-6d-7"
                 transform="matrix(0.996264,0,0,0.996264,179.48221,0)"
                 id="use21229" /><use
                 xlink:href="#CMR17-29-5"
                 transform="matrix(0.996264,0,0,0.996264,256.40181,0)"
                 id="use21231" /></g></g></g><g
           id="matplotlib.axis_2"><g
             id="ytick_1"><g
               id="line2d_10"><defs
                 id="defs21238"><path
                   id="path21491"
                   d="M 0,0 H -3.5"
                   style="stroke:#000000;stroke-width:0.8" /></defs><g
                 id="g21242"><use
                   xlink:href="#m5f7b34ac3f"
                   x="48.061806"
                   y="93.07769"
                   style="stroke:#000000;stroke-width:0.8"
                   id="use21240" /></g></g><g
               id="text_9"><!-- $\mathdefault{0.00}$ --><g
                 transform="matrix(0.09,0,0,-0.09,24.678904,96.191014)"
                 id="g21253"><use
                   xlink:href="#CMR17-30-1"
                   transform="scale(0.996264)"
                   id="use21245" /><use
                   xlink:href="#CMMI12-3a-9"
                   transform="matrix(0.996264,0,0,0.996264,45.690477,0)"
                   id="use21247" /><use
                   xlink:href="#CMR17-30-1"
                   transform="matrix(0.996264,0,0,0.996264,72.787654,0)"
                   id="use21249" /><use
                   xlink:href="#CMR17-30-1"
                   transform="matrix(0.996264,0,0,0.996264,118.47813,0)"
                   id="use21251" /></g></g></g><g
             id="ytick_2"><g
               id="line2d_11"><g
                 id="g21259"><use
                   xlink:href="#m5f7b34ac3f"
                   x="48.061806"
                   y="61.029366"
                   style="stroke:#000000;stroke-width:0.8"
                   id="use21257" /></g></g><g
               id="text_10"><!-- $\mathdefault{0.05}$ --><g
                 transform="matrix(0.09,0,0,-0.09,24.678904,64.14269)"
                 id="g21270"><use
                   xlink:href="#CMR17-30-1"
                   transform="scale(0.996264)"
                   id="use21262" /><use
                   xlink:href="#CMMI12-3a-9"
                   transform="matrix(0.996264,0,0,0.996264,45.690477,0)"
                   id="use21264" /><use
                   xlink:href="#CMR17-30-1"
                   transform="matrix(0.996264,0,0,0.996264,72.787654,0)"
                   id="use21266" /><use
                   xlink:href="#CMR17-35-3"
                   transform="matrix(0.996264,0,0,0.996264,118.47813,0)"
                   id="use21268" /></g></g></g><g
             id="ytick_3"><g
               id="line2d_12"><g
                 id="g21276"><use
                   xlink:href="#m5f7b34ac3f"
                   x="48.061806"
                   y="28.981043"
                   style="stroke:#000000;stroke-width:0.8"
                   id="use21274" /></g></g><g
               id="text_11"><!-- $\mathdefault{0.10}$ --><g
                 transform="matrix(0.09,0,0,-0.09,24.678904,32.094367)"
                 id="g21287"><use
                   xlink:href="#CMR17-30-1"
                   transform="scale(0.996264)"
                   id="use21279" /><use
                   xlink:href="#CMMI12-3a-9"
                   transform="matrix(0.996264,0,0,0.996264,45.690477,0)"
                   id="use21281" /><use
                   xlink:href="#CMR17-31-0"
                   transform="matrix(0.996264,0,0,0.996264,72.787654,0)"
                   id="use21283" /><use
                   xlink:href="#CMR17-30-1"
                   transform="matrix(0.996264,0,0,0.996264,118.47813,0)"
                   id="use21285" /></g></g></g><g
             id="text_12"><!-- Voltage (V) --><g
               transform="matrix(0,-0.11,-0.11,0,17.939178,84.059979)"
               id="g21320"><defs
                 id="defs21298"><path
                   id="path21524"
                   d="m 3776,3762 c 58,141 160,417 589,423 v 167 c -147,-13 -314,-13 -474,-13 -153,0 -416,0 -563,13 v -167 c 320,-19 333,-243 333,-282 0,-70 -19,-115 -39,-166 L 2362,448 1043,3903 c -19,45 -32,77 -32,109 0,173 256,173 391,173 v 167 c -205,-13 -506,-13 -717,-13 -167,0 -467,0 -621,13 v -167 c 371,0 442,-25 518,-230 L 2106,-26 c 32,-90 38,-102 108,-102 71,0 77,12 109,102 z"
                   transform="scale(0.015625)" /><path
                   id="path21526"
                   d="m 2758,1356 c 0,820 -595,1460 -1292,1460 C 768,2816 173,2176 173,1356 173,550 768,-64 1466,-64 c 697,0 1292,614 1292,1420 z M 1466,51 c -301,0 -557,179 -704,429 -160,288 -180,646 -180,928 0,268 13,601 180,889 128,211 377,416 704,416 288,0 531,-160 684,-384 199,-301 199,-723 199,-921 0,-250 -13,-634 -186,-941 C 1984,172 1709,51 1466,51 Z"
                   transform="scale(0.015625)" /><path
                   id="path21528"
                   d="m 979,4416 -761,-71 v -166 c 377,0 435,-38 435,-344 V 439 C 653,198 627,166 218,166 V 0 c 153,12 435,12 595,12 166,0 448,0 601,-12 v 166 c -409,0 -435,25 -435,273 z"
                   transform="scale(0.015625)" /><path
                   id="path21530"
                   d="m 966,2585 h 896 v 167 H 966 V 3968 H 851 C 838,3292 614,2700 70,2687 V 2585 H 627 V 778 c 0,-123 0,-842 743,-842 377,0 595,372 595,848 v 367 H 1850 V 790 C 1850,347 1677,51 1408,51 1222,51 966,179 966,765 Z"
                   transform="scale(0.015625)" /><path
                   id="path21532"
                   d="m 2304,1656 c 0,392 0,619 -269,878 -237,217 -512,282 -729,282 -506,0 -871,-408 -871,-839 0,-237 192,-249 231,-249 83,0 230,51 230,230 0,160 -122,230 -230,230 -26,0 -58,-6 -77,-12 134,418 480,537 704,537 320,0 672,-292 672,-838 V 1632 C 1587,1619 1133,1568 774,1373 371,1147 256,822 256,576 256,77 832,-64 1171,-64 c 352,0 679,199 819,569 13,-286 192,-544 474,-544 134,0 474,90 474,602 V 926 H 2822 V 557 c 0,-396 -172,-448 -256,-448 -262,0 -262,337 -262,623 z M 1965,887 C 1965,323 1568,38 1216,38 896,38 646,278 646,576 c 0,195 84,538 455,746 307,175 659,201 864,214 z"
                   transform="scale(0.015625)" /><path
                   id="path21534"
                   d="m 710,1165 c 122,-97 333,-205 589,-205 506,0 941,399 941,935 0,168 -51,426 -243,626 179,192 441,256 589,256 25,0 64,0 96,-19 -26,-7 -84,-32 -84,-135 0,-83 58,-140 141,-140 96,0 147,64 147,147 0,121 -96,250 -300,250 -256,0 -480,-122 -660,-289 -192,173 -422,237 -627,237 -505,0 -941,-397 -941,-933 0,-368 212,-601 276,-665 C 442,1004 442,742 442,710 442,544 506,300 723,166 390,82 128,-184 128,-517 c 0,-479 608,-827 1338,-827 704,0 1337,335 1337,834 0,894 -947,894 -1440,894 -147,0 -409,0 -441,6 -199,32 -333,211 -333,435 0,58 0,199 121,340 z m 589,-97 c -563,0 -563,698 -563,827 0,129 0,824 563,824 563,0 563,-695 563,-824 0,-129 0,-827 -563,-827 z m 167,-2304 c -640,0 -1082,353 -1082,719 0,206 109,399 250,506 160,113 224,113 659,113 525,0 1254,0 1254,-619 0,-366 -441,-719 -1081,-719 z"
                   transform="scale(0.015625)" /><path
                   id="path21536"
                   d="m 2438,1503 c 26,26 26,39 26,103 0,645 -346,1210 -1075,1210 C 710,2816 173,2175 173,1394 173,554 781,-64 1459,-64 c 717,0 999,683 999,819 0,45 -39,45 -52,45 -44,0 -51,-13 -76,-91 C 2189,270 1837,51 1504,51 1229,51 954,206 781,490 582,819 582,1200 582,1503 Z m -1849,97 c 45,911 537,1113 793,1113 436,0 730,-405 736,-1113 z"
                   transform="scale(0.015625)" /></defs><use
                 xlink:href="#CMR17-56"
                 transform="scale(0.996264)"
                 id="use21300" /><use
                 xlink:href="#CMR17-6f"
                 transform="matrix(0.996264,0,0,0.996264,61.265174,0)"
                 id="use21302" /><use
                 xlink:href="#CMR17-6c"
                 transform="matrix(0.996264,0,0,0.996264,106.95565,0)"
                 id="use21304" /><use
                 xlink:href="#CMR17-74"
                 transform="matrix(0.996264,0,0,0.996264,131.82671,0)"
                 id="use21306" /><use
                 xlink:href="#CMR17-61"
                 transform="matrix(0.996264,0,0,0.996264,167.10748,0)"
                 id="use21308" /><use
                 xlink:href="#CMR17-67"
                 transform="matrix(0.996264,0,0,0.996264,212.79795,0)"
                 id="use21310" /><use
                 xlink:href="#CMR17-65"
                 transform="matrix(0.996264,0,0,0.996264,258.48843,0)"
                 id="use21312" /><use
                 xlink:href="#CMR17-28-7"
                 transform="matrix(0.996264,0,0,0.996264,329.05006,0)"
                 id="use21314" /><use
                 xlink:href="#CMR17-56"
                 transform="matrix(0.996264,0,0,0.996264,364.33083,0)"
                 id="use21316" /><use
                 xlink:href="#CMR17-29-5"
                 transform="matrix(0.996264,0,0,0.996264,433.40326,0)"
                 id="use21318" /></g></g></g><g
           id="line2d_13"><path
             d="m 48.061804,84.605488 3.332528,0.48247 3.743933,0.32501 4.167998,0.135582 4.219665,-0.08716 3.880576,-0.289975 3.528523,-0.469052 3.164926,-0.62946 2.791163,-0.765458 2.408583,-0.863242 2.423431,-1.109319 2.030824,-1.161673 2.041057,-1.43061 2.051255,-1.760485 1.648322,-1.693322 1.654807,-1.989469 1.661274,-2.325668 1.667722,-2.697557 1.674154,-3.093146 2.101706,-4.419918 2.535219,-5.982632 4.25716,-10.274808 1.71393,-3.435288 1.28958,-2.011158 0.86168,-0.996642 0.86326,-0.683471 0.86482,-0.34718 0.86639,0.0021 0.86794,0.35314 0.86951,0.694689 0.87106,1.016001 0.87262,1.307725 1.31184,2.426206 1.75454,3.874799 3.97029,9.724812 2.21916,5.132026 2.22871,4.56242 1.78982,3.171222 1.7959,2.744715 1.80196,2.345668 1.80799,1.987143 1.81401,1.673566 1.82002,1.404123 2.28343,1.437513 2.29274,1.147837 2.30202,0.914203 2.77463,0.850868 3.25379,0.726005 3.27173,0.501303 3.76096,0.35348 4.25873,0.162009 4.28782,-0.06984 3.83565,-0.268488 3.85832,-0.500574 3.39452,-0.682336 2.92324,-0.824954 2.44561,-0.908851 2.45429,-1.168371 1.96965,-1.169499 1.97515,-1.42764 1.98065,-1.740606 1.98612,-2.116274 1.49317,-1.874224 1.49623,-2.151251 1.99971,-3.339328 2.00513,-3.902545 2.01052,-4.437436 3.02584,-7.351578 3.03787,-7.239852 1.52342,-3.069048 1.01728,-1.679537 1.01859,-1.308169 1.01992,-0.88125 1.02124,-0.414494 0.51111,-0.02504 0.51144,0.09757 1.02387,0.558158 1.02518,1.02079 1.02649,1.441004 1.0278,1.803339 1.54415,3.233606 2.58008,6.194634 3.62571,8.748844 2.07892,4.454132 2.08406,3.883801 1.56641,2.525404 1.56927,2.208186 1.57214,1.915834 1.57499,1.653054 2.10442,1.848164 2.10946,1.504331 2.11448,1.221458 2.11949,0.990043 2.65638,0.9756 2.66414,0.7439 3.20715,0.65361 3.75565,0.504966 3.77061,0.282948 4.32746,0.09078 4.34671,-0.148144 3.81906,-0.345603 3.28506,-0.491268 3.29567,-0.72199 2.75446,-0.830965 2.20882,-0.858181 2.21347,-1.075015 2.21811,-1.345162 1.66661,-1.225468 1.66919,-1.447289 1.67178,-1.705888 1.67435,-2.003854 1.67691,-2.341079 1.67947,-2.712649 1.68202,-3.105937 2.24664,-4.74408 2.25115,-5.315571 4.51571,-10.878412 1.69799,-3.357332 1.13338,-1.760026 1.13448,-1.27402 0.56765,-0.43256 0.56793,-0.287572 0.56821,-0.138401 0.56848,0.01292 0.56875,0.164269 0.56903,0.313552 1.13889,1.056531 1.13997,1.580287 1.14107,2.025102 1.71364,3.663339 2.8615,6.953741 2.86826,6.905407 2.29944,4.946193 1.72739,3.252717 1.72979,2.844473 1.73219,2.453739 1.73456,2.096523 1.73695,1.779724 1.73932,1.504427 1.74168,1.268365 2.32589,1.384318 2.33007,1.098041 2.33421,0.868977 2.92358,0.83153 2.92999,0.608808 3.52441,0.500905 4.12335,0.331934 4.13568,0.102161 4.14791,-0.115172 4.16004,-0.350983 3.57533,-0.528333 2.98615,-0.645788 2.99221,-0.889527 2.39812,-0.938376 2.40195,-1.197323 1.80397,-1.108978 1.80611,-1.329011 1.80824,-1.590572 1.81037,-1.898781 1.81249,-2.256653 1.8146,-2.662699 1.8167,-3.107312 1.8188,-3.567856 1.82088,-4.003062 3.03943,-7.356108 3.04516,-7.300034 v 0"
             clip-path="url(#pb92b56ae1b)"
             style="fill:none;stroke:#00008b;stroke-width:1.5;stroke-dasharray:5.55, 2.4;stroke-dashoffset:0"
             id="path21324" /></g><g
           id="line2d_14"><path
             d="m -1,89.372229 1.383849,-0.690537 2.301873,-1.44389 2.31666,-1.82181 2.33136,-2.220919 2.345969,-2.641976 2.36049,-3.083741 2.374921,-3.541899 2.389264,-4.007617 2.403517,-4.465716 2.417681,-4.892589 3.652885,-7.984387 6.157698,-13.806071 2.487164,-5.008028 1.248699,-2.238915 1.252095,-2.005466 1.25548,-1.730551 1.258854,-1.417074 1.262216,-1.069732 1.265569,-0.694956 1.268908,-0.300695 1.272238,0.103959 1.275556,0.509246 1.278863,0.905298 1.282159,1.282717 1.285444,1.633091 1.288718,1.949427 1.291979,2.226435 2.593703,5.111138 3.914744,8.655066 5.264344,11.789425 2.651124,5.505292 2.663638,5.067371 2.676064,4.559934 2.6884,4.019187 2.700649,3.469601 2.712807,2.926082 2.724876,2.396289 2.736856,1.882656 2.748747,1.384001 1.378805,0.508742 1.381745,0.387957 1.384672,0.267759 1.387589,0.147757 1.390496,0.02753 1.39339,-0.09335 1.396274,-0.215322 1.399146,-0.338843 1.402012,-0.464355 1.40485,-0.592296 1.4077,-0.723085 1.41052,-0.857114 1.41335,-0.994733 1.41614,-1.136229 2.84067,-2.713388 2.85176,-3.328761 2.86275,-3.972969 2.87367,-4.633246 2.88448,-5.283777 2.89522,-5.880406 4.36276,-9.648923 4.3864,-9.872986 2.93726,-6.040823 1.47249,-2.666993 1.47505,-2.340169 1.4776,-1.947563 1.48014,-1.495815 1.48267,-0.995451 1.48518,-0.460501 1.48769,0.09233 1.49018,0.644874 1.49266,1.178889 1.49513,1.677504 1.4976,2.126454 1.50004,2.514958 1.50248,2.836158 3.01224,6.355587 9.09405,20.172043 3.05017,5.975391 3.05943,5.314474 3.0686,4.600266 3.07769,3.876762 1.54222,1.671298 1.54446,1.497251 1.54668,1.326693 1.5489,1.159692 1.55111,0.996118 1.55329,0.835686 1.55548,0.677984 1.55765,0.522513 1.55981,0.368695 1.56196,0.215904 1.56409,0.06347 1.56622,-0.08929 1.56834,-0.243082 1.57043,-0.398626 1.57253,-0.556613 1.57462,-0.717723 1.57668,-0.882585 1.57874,-1.051772 1.58079,-1.225757 1.58283,-1.404885 1.58485,-1.589319 1.58686,-1.778988 1.58887,-1.9735 1.59086,-2.172061 3.18766,-4.948789 3.19549,-5.745544 3.20324,-6.475681 3.21089,-7.042629 6.4444,-14.422701 1.61575,-3.292766 1.61758,-3.00096 1.61941,-2.618886 1.62122,-2.1501 1.62303,-1.604165 1.62482,-0.996708 1.62659,-0.348671 1.62837,0.315266 1.63012,0.968849 1.63188,1.58673 1.6336,2.146759 1.63534,2.631769 1.63704,3.03058 3.27919,6.893239 8.22718,18.358958 3.30232,6.619436 3.30873,5.856918 1.65675,2.616079 1.65831,2.402976 1.65986,2.190118 1.66142,1.979562 1.66295,1.772662 1.66447,1.570209 1.66599,1.372547 1.66749,1.179674 1.66898,0.991315 1.67045,0.806998 1.67193,0.626091 1.67339,0.447857 1.67483,0.271473 1.67627,0.09606 1.67769,-0.07928 1.6791,-0.255503 1.6805,-0.433518 1.6819,-0.614243 1.68328,-0.798548 1.68464,-0.987238 1.686,-1.181016 1.68734,-1.38044 1.68869,-1.585862 1.69,-1.797356 1.69132,-2.014624 1.69262,-2.236871 1.69391,-2.462672 1.69518,-2.689793 3.39417,-6.048846 3.39915,-6.867914 3.40405,-7.489569 5.11505,-11.536492 1.70736,-3.626068 1.70852,-3.357408 1.70967,-2.983246 1.71081,-2.504669 1.71192,-1.930229 1.71304,-1.276432 1.71414,-0.567131 1.71522,0.16829 1.71631,0.897695 1.71738,1.589526 1.71843,2.216002 1.71947,2.755636 1.72051,3.194655 3.44408,7.281885 6.90007,15.502987 3.45581,7.141393 3.45955,6.341817 1.73115,2.832809 1.73205,2.599568 1.73293,2.365736 1.73382,2.134117 1.73468,1.906574 1.73554,1.684208 1.73638,1.467532 1.73722,1.256599 1.73804,1.051119 1.73884,0.85054 1.73965,0.654125 1.74044,0.460999 1.74122,0.270188 1.74198,0.08066 1.74274,-0.108647 1.74348,-0.298827 1.74421,-0.490951 1.74494,-0.686065 1.74565,-0.885154 1.74634,-1.089109 v 0"
             clip-path="url(#pb92b56ae1b)"
             style="fill:none;stroke:#8b0000;stroke-width:1.5;stroke-dasharray:5.55, 2.4;stroke-dashoffset:0"
             id="path21327" /></g><g
           id="patch_3"><path
             d="M 48.061804,102.08327 V 9.72"
             style="fill:none;stroke:#000000;stroke-width:0.8;stroke-linecap:square;stroke-linejoin:miter"
             id="path21330" /></g><g
           id="patch_4"><path
             d="M 412.6422,102.08327 V 9.72"
             style="fill:none;stroke:#000000;stroke-width:0.8;stroke-linecap:square;stroke-linejoin:miter"
             id="path21333" /></g><g
           id="patch_5"><path
             d="M 48.061804,102.08327 H 412.6422"
             style="fill:none;stroke:#000000;stroke-width:0.8;stroke-linecap:square;stroke-linejoin:miter"
             id="path21336" /></g><g
           id="patch_6"><path
             d="M 48.061804,9.72 H 412.6422"
             style="fill:none;stroke:#000000;stroke-width:0.8;stroke-linecap:square;stroke-linejoin:miter"
             id="path21339" /></g></g></g><path
       d="m 126.74812,14.584182 h 16.48139 q 0.635,0 0.635,-0.635 V 5.4165667 q 0,-0.635001 -0.635,-0.635001 h -16.48139 q -0.635,0 -0.635,0.635001 v 8.5326153 q 0,0.635 0.635,0.635 z"
       style="opacity:0.8;fill:#ffffff;stroke:#cccccc;stroke-width:0.352778;stroke-linecap:butt;stroke-linejoin:miter"
       id="path593" /><path
       d="m 127.38312,7.1628177 h 3.17502 3.17501"
       style="fill:#4d4d4d;stroke:#4d4d4d;stroke-width:0.529167;stroke-linecap:square;stroke-linejoin:round;stroke-opacity:0.4"
       id="path596" /><g
       transform="matrix(0.03175002,0,0,-0.03175002,136.27315,8.2740687)"
       id="g610"
       style="stroke-linecap:butt;stroke-linejoin:round"><defs
         id="defs600"><path
           id="path21631"
           d="m 2304,1656 c 0,392 0,619 -269,878 -237,217 -512,282 -729,282 -506,0 -871,-408 -871,-839 0,-237 192,-249 231,-249 83,0 230,51 230,230 0,160 -122,230 -230,230 -26,0 -58,-6 -77,-12 134,418 480,537 704,537 320,0 672,-292 672,-838 V 1632 C 1587,1619 1133,1568 774,1373 371,1147 256,822 256,576 256,77 832,-64 1171,-64 c 352,0 679,199 819,569 13,-286 192,-544 474,-544 134,0 474,90 474,602 V 926 H 2822 V 557 c 0,-396 -172,-448 -256,-448 -262,0 -262,337 -262,623 z M 1965,887 C 1965,323 1568,38 1216,38 896,38 646,278 646,576 c 0,195 84,538 455,746 307,175 659,201 864,214 z"
           transform="scale(0.015625)" /></defs><path
         id="use602"
         d="m 29.094022,67.636986 v -2.58406 c 5.868618,0 6.771482,-0.591532 6.771482,-5.230386 V 36.908468 c -0.404732,0.498132 -4.483188,6.927148 -12.5467,6.927148 -10.165006,0 -20.0342461,-9.153176 -20.0342461,-22.41594 0,-13.1849314 9.2621421,-22.41594 19.0379821,-22.41594 8.468244,0 12.842466,6.6158156 13.340598,7.3163137 V -0.996264 l 12.064134,0.79389787 V 2.3972603 c -5.884184,0 -6.787048,0.6070983 -6.787048,5.4327521 V 68.742216 Z m 6.569116,-55.775218 c 0,-3.019925 -1.790162,-5.7440844 -4.078456,-7.752179 -3.393524,-3.0199252 -6.771482,-3.51805725 -8.67061,-3.51805725 -2.895392,0 -13.2471979,1.50996265 -13.2471979,20.71917825 0,19.722914 11.5504359,20.921544 14.1500619,20.921544 4.576588,0 8.265878,-2.615193 10.554172,-6.22665 1.29203,-2.117061 1.29203,-2.428394 1.29203,-4.234122 z"
         style="stroke-width:0.0155666;stroke-linecap:butt;stroke-linejoin:round" /><path
         id="use604"
         d="m 86.760874,25.778331 c 0,6.102117 0,9.635741 -4.187422,13.667497 -3.68929,3.377957 -7.970112,4.389788 -11.34807,4.389788 -7.876712,0 -13.55853,-6.351183 -13.55853,-13.060398 0,-3.689291 2.988792,-3.87609 3.59589,-3.87609 1.29203,0 3.580324,0.793898 3.580324,3.580324 0,2.49066 -1.899128,3.580323 -3.580324,3.580323 -0.404732,0 -0.902864,-0.0934 -1.19863,-0.186799 2.085928,6.506849 7.47198,8.359278 10.958904,8.359278 4.98132,0 10.460772,-4.545455 10.460772,-13.044832 v -3.78269 c -5.884184,-0.202366 -12.951432,-0.996264 -18.53985,-4.031756 -6.27335,-3.518057 -8.063512,-8.57721 -8.063512,-12.4066 0,-7.7677459 8.966376,-9.96264 14.243462,-9.96264 5.479452,0 10.569738,3.0977584 12.749066,8.8574096 0.202366,-4.4520547 2.988792,-8.46824398 7.37858,-8.46824398 2.085928,0 7.37858,1.40099626 7.37858,9.37110828 V 14.414695 H 94.824386 V 8.6706101 c 0,-6.1643835 -2.67746,-6.973848 -3.985056,-6.973848 -4.078456,0 -4.078456,5.2459527 -4.078456,9.6980079 z M 81.483788,13.807596 c 0,-8.7795761 -6.17995,-13.21606425 -11.659402,-13.21606425 -4.98132,0 -8.872976,3.73598995 -8.872976,8.37484425 0,3.035492 1.307596,8.374844 7.082814,11.612702 4.778954,2.72416 10.258406,3.128892 13.449564,3.331258 z"
         style="stroke-width:0.0155666;stroke-linecap:butt;stroke-linejoin:round" /><path
         id="use606"
         d="m 111.62321,40.239726 h 13.94769 v 2.599626 h -13.94769 v 18.929016 h -1.79017 C 109.63068,51.24533 106.14375,42.029887 97.675511,41.827521 v -1.587795 h 8.670609 V 12.110834 c 0,-1.914695 0,-13.107098 11.566,-13.107098 5.86862,0 9.26215,5.7907845 9.26215,13.200498 v 5.712951 h -1.79017 v -5.619551 c 0,-6.8960151 -2.69302,-11.50373612 -6.88044,-11.50373612 -2.8954,0 -6.88045,1.99252802 -6.88045,11.11457012 z"
         style="stroke-width:0.0155666;stroke-linecap:butt;stroke-linejoin:round" /><path
         id="use608"
         d="m 167.73211,25.778331 c 0,6.102117 0,9.635741 -4.18742,13.667497 -3.68929,3.377957 -7.97011,4.389788 -11.34807,4.389788 -7.87671,0 -13.55853,-6.351183 -13.55853,-13.060398 0,-3.689291 2.98879,-3.87609 3.59589,-3.87609 1.29203,0 3.58033,0.793898 3.58033,3.580324 0,2.49066 -1.89913,3.580323 -3.58033,3.580323 -0.40473,0 -0.90286,-0.0934 -1.19863,-0.186799 2.08593,6.506849 7.47198,8.359278 10.95891,8.359278 4.98132,0 10.46077,-4.545455 10.46077,-13.044832 v -3.78269 c -5.88419,-0.202366 -12.95143,-0.996264 -18.53985,-4.031756 -6.27335,-3.518057 -8.06351,-8.57721 -8.06351,-12.4066 0,-7.7677459 8.96637,-9.96264 14.24346,-9.96264 5.47945,0 10.56974,3.0977584 12.74906,8.8574096 0.20237,-4.4520547 2.9888,-8.46824398 7.37858,-8.46824398 2.08593,0 7.37858,1.40099626 7.37858,9.37110828 v 5.6506851 h -1.80572 V 8.6706101 c 0,-6.1643835 -2.67746,-6.973848 -3.98506,-6.973848 -4.07846,0 -4.07846,5.2459527 -4.07846,9.6980079 z m -5.27708,-11.970735 c 0,-8.7795761 -6.17995,-13.21606425 -11.6594,-13.21606425 -4.98132,0 -8.87298,3.73598995 -8.87298,8.37484425 0,3.035492 1.3076,8.374844 7.08281,11.612702 4.77896,2.72416 10.25841,3.128892 13.44957,3.331258 z"
         style="stroke-width:0.0155666;stroke-linecap:butt;stroke-linejoin:round" /></g><path
       d="m 127.38312,11.587875 h 3.17502 3.17501"
       style="fill:#4d4d4d;stroke:#4d4d4d;stroke-width:0.529167;stroke-linecap:butt;stroke-linejoin:round;stroke-dasharray:1.95792, 0.846667;stroke-dashoffset:0"
       id="path613" /><g
       transform="matrix(0.03175002,0,0,-0.03175002,136.27315,12.699126)"
       id="g623"
       style="stroke-linecap:butt;stroke-linejoin:round"><defs
         id="defs617"><path
           id="path21640"
           d="m 2554,2816 c -154,-7 -628,-39 -749,-52 -39,-6 -51,-6 -128,-6 H 947 v 759 c 0,610 487,899 871,899 121,0 396,-33 537,-256 -64,0 -269,0 -269,-225 0,-153 103,-230 231,-230 115,0 230,64 230,237 0,323 -307,576 -704,576 C 1338,4518 634,4225 634,3517 V 2758 H 122 V 2591 H 634 V 442 C 634,198 608,166 198,166 V 0 c 154,12 436,12 596,12 166,0 448,0 601,-12 v 166 c -409,0 -435,26 -435,276 v 2149 h 941 c 275,0 326,-57 326,-340 V 442 c 0,-244 -25,-276 -435,-276 V 0 c 154,12 435,12 595,12 167,0 448,0 602,-12 v 166 c -410,0 -435,26 -435,276 z"
           transform="scale(0.015625)" /></defs><path
         id="use619"
         d="M 39.75716,43.835616 C 37.3599,43.72665 29.98132,43.228518 28.097758,43.026152 c -0.607098,-0.0934 -0.793898,-0.0934 -1.992528,-0.0934 H 14.741594 V 54.74782 c 0,9.495641 7.580946,13.994396 13.55853,13.994396 1.883562,0 6.164384,-0.513699 8.359278,-3.985056 -0.996264,0 -4.187422,0 -4.187422,-3.502491 0,-2.381693 1.603362,-3.580323 3.59589,-3.580323 1.790162,0 3.580324,0.996264 3.580324,3.68929 0,5.02802 -4.778954,8.966376 -10.958904,8.966376 -7.861146,0 -18.8200497,-4.561021 -18.8200497,-15.582192 V 42.932752 H 1.8991282 V 40.333125 H 9.8692403 V 6.8804483 c 0,-3.7982565 -0.4047323,-4.2963885 -6.7870485,-4.2963885 V 0 C 5.479452,0.1867995 9.8692403,0.1867995 12.3599,0.1867995 c 2.58406,0 6.973848,0 9.355542,-0.1867995 v 2.5840598 c -6.36675,0 -6.771482,0.4047322 -6.771482,4.2963885 V 40.333125 h 14.648194 c 4.280822,0 5.07472,-0.887297 5.07472,-5.292652 V 6.8804483 c 0,-3.7982565 -0.389166,-4.2963885 -6.771482,-4.2963885 V 0 c 2.39726,0.1867995 6.771482,0.1867995 9.262142,0.1867995 2.599626,0 6.973848,0 9.371108,-0.1867995 v 2.5840598 c -6.382316,0 -6.771482,0.4047322 -6.771482,4.2963885 z"
         style="stroke-width:0.0155666;stroke-linecap:butt;stroke-linejoin:round" /><path
         id="use621"
         d="m 64.779583,40.239726 h 13.947696 v 2.599626 H 64.779583 V 61.768368 H 62.989421 C 62.787055,51.24533 59.300131,42.029887 50.831887,41.827521 v -1.587795 h 8.67061 V 12.110834 c 0,-1.914695 0,-13.107098 11.566002,-13.107098 5.868618,0 9.262142,5.7907845 9.262142,13.200498 v 5.712951 h -1.790162 v -5.619551 c 0,-6.8960151 -2.693026,-11.50373612 -6.880448,-11.50373612 -2.895392,0 -6.880448,1.99252802 -6.880448,11.11457012 z"
         style="stroke-width:0.0155666;stroke-linecap:butt;stroke-linejoin:round" /></g></g></svg>
